<svg xmlns="http://www.w3.org/2000/svg" xmlns:xlink="http://www.w3.org/1999/xlink" version="1.1" width="1000" height="1000" viewBox="0 0 1000 1000" xml:space="preserve">
<desc>Created with Fabric.js 3.5.0</desc>
<defs>
</defs>
<rect x="0" y="0" width="100%" height="100%" fill="rgba(255,255,255,0)"/>
<g transform="matrix(2.6831 0 0 2.7268 500.01 515.0333)" id="451565">
<g style="" vector-effect="non-scaling-stroke">
		<g transform="matrix(1 0 0 1 -0.0236 -0.7146)">
<path style="stroke: none; stroke-width: 1; stroke-dasharray: none; stroke-linecap: butt; stroke-dashoffset: 0; stroke-linejoin: miter; stroke-miterlimit: 4; is-custom-font: none; font-file-url: none; fill: rgb(241,77,65); fill-rule: nonzero; opacity: 1;" transform=" translate(97.6017, -106.6096)" d="M 0 0 C 1.19882812 1.15048828 1.19882812 1.15048828 2.421875 2.32421875 C 3.30359375 3.14277344 4.1853125 3.96132812 5.09375 4.8046875 C 31.30646487 29.8696705 46.40131032 65.84657039 47.60546875 101.94140625 C 48.42643795 142.44117815 34.22342839 178.85647637 6.421875 208.32421875 C 5.7103125 209.11183594 4.99875 209.89945313 4.265625 210.7109375 C -19.16535288 235.62641227 -54.40230573 250.93505106 -88.41625977 252.45068359 C -131.75427439 253.58102138 -167.86031859 239.88058986 -199.578125 210.32421875 C -200.31933594 209.64875 -201.06054688 208.97328125 -201.82421875 208.27734375 C -226.67852918 184.70783725 -241.72988118 148.41732569 -242.81640625 114.41015625 C -243.38388237 80.15453686 -234.76424604 49.16714432 -214.578125 21.32421875 C -213.96710938 20.46828125 -213.35609375 19.61234375 -212.7265625 18.73046875 C -190.20166034 -11.03812442 -157.1655125 -29.87301807 -120.67675781 -36.29248047 C -118.86113086 -36.62409219 -117.05766115 -37.02101598 -115.2578125 -37.4296875 C -75.41386854 -45.36851844 -28.89770607 -27.05618558 0 0 Z M -152.64746094 141.88134766 C -154.4946606 143.26184209 -156.35108523 144.62880819 -158.2109375 145.9921875 C -162.59197351 149.22374376 -166.80026656 152.37943168 -170.578125 156.32421875 C -165.55124056 155.8108022 -161.84408679 154.07781585 -157.578125 151.51171875 C -156.69253906 150.99641602 -156.69253906 150.99641602 -155.7890625 150.47070312 C -152.89758363 148.77339229 -150.10731827 147.00563198 -147.328125 145.125 C -144.578125 143.32421875 -144.578125 143.32421875 -141.578125 142.32421875 C -141.0064729 152.88919651 -141.83533328 163.78334924 -148.578125 172.32421875 C -148.908125 173.31421875 -149.238125 174.30421875 -149.578125 175.32421875 C -144.02032809 173.64003787 -139.6623445 170.30829174 -136.34765625 165.5625 C -134.39658928 161.75754563 -133.5146908 158.45732332 -133.41015625 154.19921875 C -132.90899794 142.75856062 -132.90899794 142.75856062 -128.76318359 138.42871094 C -123.77479907 134.5526087 -118.23189205 131.67010981 -112.60107422 128.84326172 C -109.60034863 127.3353862 -106.65334944 125.75186968 -103.70703125 124.140625 C -79.8106102 111.19088803 -49.38927692 94.77312291 -21.203125 101.07421875 C -16.86360926 102.57060349 -12.71933748 104.34947391 -8.578125 106.32421875 C -6.103125 103.35421875 -6.103125 103.35421875 -3.578125 100.32421875 C -5.31406035 95.90547421 -8.18717761 93.43835094 -12.47265625 91.44140625 C -57.9766009 73.51824641 -118.7431488 116.53117729 -152.64746094 141.88134766 Z" stroke-linecap="round"/>
</g>
		<g transform="matrix(1 0 0 1 4.5481 33.5305)">
<path style="stroke: none; stroke-width: 1; stroke-dasharray: none; stroke-linecap: butt; stroke-dashoffset: 0; stroke-linejoin: miter; stroke-miterlimit: 4; is-custom-font: none; font-file-url: none; fill: rgb(247,161,97); fill-rule: nonzero; opacity: 1;" transform=" translate(98.2527, -99.05)" d="M 0 0 C 10.42820814 10.47996103 9.40465046 28.89000222 9.63671875 42.58203125 C 9.68248047 43.68869141 9.72824219 44.79535156 9.77539062 45.93554688 C 9.93128153 57.41047271 4.79531905 64.44959858 -2.92578125 72.45703125 C -3.43753906 73.00681641 -3.94929687 73.55660156 -4.4765625 74.12304688 C -8.435677 78.32133667 -8.435677 78.32133667 -10.89208984 79.65478516 C -13.88953678 82.5832195 -13.77519364 86.1560122 -14.14453125 90.140625 C -14.24036499 90.99576187 -14.33619873 91.85089874 -14.43493652 92.73194885 C -14.74063256 95.4721063 -15.02283422 98.21393007 -15.30078125 100.95703125 C -18.43864107 131.38665798 -18.43864107 131.38665798 -27.80078125 141.51953125 C -28.30222656 142.08542969 -28.80367187 142.65132812 -29.3203125 143.234375 C -36.43876613 150.31818896 -46.98059201 150.88223218 -56.54199219 150.93676758 C -57.65864258 150.92282959 -58.77529297 150.9088916 -59.92578125 150.89453125 C -61.10430664 150.88510498 -62.28283203 150.87567871 -63.49707031 150.8659668 C -78.84060071 150.60312035 -92.45237266 147.87373091 -106.80078125 142.51953125 C -107.13078125 142.84953125 -107.46078125 143.17953125 -107.80078125 143.51953125 C -90.6802907 160.53931303 -65.79600313 163.3231141 -42.80078125 164.51953125 C -41.62072524 168.39058123 -40.45913943 172.26693843 -39.30078125 176.14453125 C -38.96691406 177.23894531 -38.63304687 178.33335937 -38.2890625 179.4609375 C -37.81533203 181.05615234 -37.81533203 181.05615234 -37.33203125 182.68359375 C -37.03876953 183.6576416 -36.74550781 184.63168945 -36.44335938 185.63525391 C -35.76439674 188.68284684 -35.68775805 191.40735673 -35.80078125 194.51953125 C -44.02829429 198.7330152 -52.24340047 202.19111194 -61.11328125 204.83203125 C -61.9237793 205.0738916 -62.73427734 205.31575195 -63.56933594 205.56494141 C -92.38129113 213.85787537 -129.36165808 214.23909284 -156.80078125 200.51953125 C -156.15620028 197.43593474 -155.50989682 194.3527017 -154.86328125 191.26953125 C -154.68087891 190.39683594 -154.49847656 189.52414062 -154.31054688 188.625 C -154.13330078 187.78066406 -153.95605469 186.93632812 -153.7734375 186.06640625 C -153.61109619 185.29135742 -153.44875488 184.51630859 -153.28149414 183.71777344 C -152.97061432 182.29615743 -152.6295087 180.88067321 -152.25268555 179.47509766 C -149.71553856 168.49587164 -152.03060357 156.18133704 -154.80078125 145.51953125 C -155.20373226 143.72945193 -155.60058475 141.93797623 -155.98828125 140.14453125 C -156.39046875 138.35015625 -156.39046875 138.35015625 -156.80078125 136.51953125 C -157.58582031 137.01839844 -157.58582031 137.01839844 -158.38671875 137.52734375 C -164.83353671 140.1770068 -173.7935944 138.19370415 -180.17578125 135.89453125 C -192.60440502 130.19892625 -199.25225953 118.97449694 -203.85546875 106.59765625 C -207.90314542 93.41761817 -206.89590576 79.81308746 -200.80078125 67.51953125 C -177.58774397 29.06211128 -118.70312416 2.26985526 -77.00976562 -8.27856445 C -73.62032289 -9.09084332 -70.21837224 -9.79488346 -66.80078125 -10.48046875 C -65.72828125 -10.70605469 -64.65578125 -10.93164062 -63.55078125 -11.1640625 C -41.54394488 -15.07459102 -17.96798405 -14.7719435 0 0 Z M -157.87011719 100.07666016 C -159.71731685 101.45715459 -161.57374148 102.82412069 -163.43359375 104.1875 C -167.81462976 107.41905626 -172.02292281 110.57474418 -175.80078125 114.51953125 C -170.77389681 114.0061147 -167.06674304 112.27312835 -162.80078125 109.70703125 C -161.91519531 109.19172852 -161.91519531 109.19172852 -161.01171875 108.66601562 C -158.12023988 106.96870479 -155.32997452 105.20094448 -152.55078125 103.3203125 C -149.80078125 101.51953125 -149.80078125 101.51953125 -146.80078125 100.51953125 C -146.22912915 111.08450901 -147.05798953 121.97866174 -153.80078125 130.51953125 C -154.13078125 131.50953125 -154.46078125 132.49953125 -154.80078125 133.51953125 C -149.24298434 131.83535037 -144.88500075 128.50360424 -141.5703125 123.7578125 C -139.61924553 119.95285813 -138.73734705 116.65263582 -138.6328125 112.39453125 C -138.13165419 100.95387312 -138.13165419 100.95387312 -133.98583984 96.62402344 C -128.99745532 92.7479212 -123.4545483 89.86542231 -117.82373047 87.03857422 C -114.82300488 85.5306987 -111.87600569 83.94718218 -108.9296875 82.3359375 C -85.03326645 69.38620053 -54.61193317 52.96843541 -26.42578125 59.26953125 C -22.08626551 60.76591599 -17.94199373 62.54478641 -13.80078125 64.51953125 C -11.32578125 61.54953125 -11.32578125 61.54953125 -8.80078125 58.51953125 C -10.5367166 54.10078671 -13.40983386 51.63366344 -17.6953125 49.63671875 C -63.19925715 31.71355891 -123.96580505 74.72648979 -157.87011719 100.07666016 Z" stroke-linecap="round"/>
</g>
		<g transform="matrix(1 0 0 1 4.5949 -3.5537)">
<path style="stroke: none; stroke-width: 1; stroke-dasharray: none; stroke-linecap: butt; stroke-dashoffset: 0; stroke-linejoin: miter; stroke-miterlimit: 4; is-custom-font: none; font-file-url: none; fill: rgb(253,252,251); fill-rule: nonzero; opacity: 1;" transform=" translate(98.2059, -61.9658)" d="M 0 0 C 10.42820814 10.47996103 9.40465046 28.89000222 9.63671875 42.58203125 C 9.68248047 43.68869141 9.72824219 44.79535156 9.77539062 45.93554688 C 9.93085253 57.37889461 4.80242083 64.43524494 -2.86328125 72.45703125 C -3.36666016 73.00681641 -3.87003906 73.55660156 -4.38867188 74.12304688 C -7.27745082 77.20615506 -10.01967374 79.52837922 -13.80078125 81.51953125 C -14.49710096 65.40746683 -14.49710096 65.40746683 -9.80078125 58.51953125 C -10.33509813 55.40268278 -11.79740526 54.52246303 -14.17578125 52.45703125 C -27.4947892 44.37619429 -46.2828472 46.459215 -60.73095703 49.97607422 C -97.01927317 59.50400436 -130.08234906 80.22508288 -159.80078125 102.51953125 C -161.0234297 103.43230211 -162.24608558 104.34506302 -163.46875 105.2578125 C -165.48978629 106.76921139 -167.50447701 108.28787445 -169.515625 109.8125 C -171.23959445 111.10031992 -173.01031596 112.32588773 -174.80078125 113.51953125 C -167.37352827 111.662718 -161.61934394 108.10752281 -155.29882812 103.92431641 C -154.63173828 103.48780762 -153.96464844 103.05129883 -153.27734375 102.6015625 C -152.68002441 102.20171143 -152.08270508 101.80186035 -151.46728516 101.38989258 C -149.80078125 100.51953125 -149.80078125 100.51953125 -146.80078125 100.51953125 C -143.34319264 107.43470847 -146.66598174 117.60424053 -148.80078125 124.51953125 C -151.10178689 129.61321041 -155.0024061 133.12034368 -159.97265625 135.60546875 C -166.67221365 137.77079531 -176.83116012 137.93796314 -183.30078125 135.01953125 C -194.63479123 127.87960426 -201.17102927 116.10267143 -204.80078125 103.51953125 C -207.62723613 89.63386029 -206.36305042 76.73463391 -198.96875 64.484375 C -171.64225149 25.30022427 -112.06126664 -1.40099638 -66.80078125 -10.48046875 C -65.72828125 -10.70605469 -64.65578125 -10.93164062 -63.55078125 -11.1640625 C -41.54394488 -15.07459102 -17.96798405 -14.7719435 0 0 Z" stroke-linecap="round"/>
</g>
		<g transform="matrix(1 0 0 1 -6.59 -72.4672)">
<path style="stroke: none; stroke-width: 1; stroke-dasharray: none; stroke-linecap: butt; stroke-dashoffset: 0; stroke-linejoin: miter; stroke-miterlimit: 4; is-custom-font: none; font-file-url: none; fill: rgb(247,167,99); fill-rule: nonzero; opacity: 1;" transform=" translate(61.2229, -37.4313)" d="M 0 0 C 10.20980327 8.86881418 15.74368686 18.78079272 21.3671875 30.8984375 C 21.3671875 31.2284375 21.3671875 31.5584375 21.3671875 31.8984375 C 20.67383301 31.91302002 19.98047852 31.92760254 19.26611328 31.94262695 C -12.8672196 32.6942994 -42.76880981 38.69906384 -71.74267578 52.96875 C -73.68876821 53.92596002 -75.64274284 54.86564196 -77.59765625 55.8046875 C -96.74429426 65.09142187 -114.1207224 76.80268306 -131.01391602 89.69677734 C -132.51815497 90.81333052 -134.07409428 91.85929202 -135.6328125 92.8984375 C -136.61764419 89.05885997 -137.59597133 85.21768651 -138.56860352 81.375 C -139.06127438 79.4340446 -139.55891168 77.49435199 -140.05664062 75.5546875 C -143.93248411 60.21114217 -146.63814069 45.36420598 -138.6328125 30.8984375 C -136.45298517 27.43752714 -134.09023485 24.16562831 -131.6328125 20.8984375 C -130.6932475 19.52484773 -129.75549997 18.15001138 -128.8203125 16.7734375 C -128.0984375 15.8246875 -127.3765625 14.8759375 -126.6328125 13.8984375 C -125.9728125 13.8984375 -125.3128125 13.8984375 -124.6328125 13.8984375 C -124.37113281 13.30417969 -124.10945313 12.70992187 -123.83984375 12.09765625 C -116.40858448 -1.44214624 -95.66296337 -10.02350334 -81.5625 -14.421875 C -54.38000194 -22.01395463 -22.35775298 -17.8463963 0 0 Z" stroke-linecap="round"/>
</g>
		<g transform="matrix(1 0 0 1 -49.6153 -53.1729)">
<path style="stroke: none; stroke-width: 1; stroke-dasharray: none; stroke-linecap: butt; stroke-dashoffset: 0; stroke-linejoin: miter; stroke-miterlimit: 4; is-custom-font: none; font-file-url: none; fill: rgb(247,147,89); fill-rule: nonzero; opacity: 1;" transform=" translate(-10.3848, -35.8272)" d="M 0 0 C 2.125 1.4375 2.125 1.4375 4 3 C 6.14733927 3.70514846 6.14733927 3.70514846 8 4 C 8 4.66 8 5.32 8 6 C 8.556875 6.2475 9.11375 6.495 9.6875 6.75 C 14.97644343 9.60888834 18.58756811 13.64770668 22.1875 18.375 C 22.62513672 18.92671875 23.06277344 19.4784375 23.51367188 20.046875 C 26.20688891 23.55011304 27.84772644 26.738519 29 31 C 30.64548828 30.22462891 30.64548828 30.22462891 32.32421875 29.43359375 C 33.77832158 28.76752084 35.23276691 28.10219528 36.6875 27.4375 C 37.40873047 27.09525391 38.12996094 26.75300781 38.87304688 26.40039062 C 42.93481724 24.56424786 45.57849239 23.40407122 50 25 C 43.04931193 30.27293578 43.04931193 30.27293578 38 30 C 37.505 31.485 37.505 31.485 37 33 C 32.06183085 37.60450907 26.04647059 40.7931655 20.125 43.9375 C 13.42374879 47.58107089 7.118333 51.42955296 1 56 C 0.11183594 56.63550781 -0.77632812 57.27101562 -1.69140625 57.92578125 C -7.96168898 62.41701297 -14.02361395 67.12555064 -20 72 C -22.00955012 68.98567482 -22.64059582 66.99897872 -23.47265625 63.51953125 C -23.86227539 61.8962793 -23.86227539 61.8962793 -24.25976562 60.24023438 C -24.52466797 59.10908203 -24.78957031 57.97792969 -25.0625 56.8125 C -25.33126953 55.70068359 -25.60003906 54.58886719 -25.87695312 53.44335938 C -27.85274297 45.12139167 -29.14059213 37.27164063 -29.1875 28.6875 C -29.20167969 27.49511719 -29.21585938 26.30273438 -29.23046875 25.07421875 C -29 22 -29 22 -27 19 C -26.67 19.66 -26.34 20.32 -26 21 C -25.43152344 20.21496094 -24.86304688 19.42992187 -24.27734375 18.62109375 C -9.83820492 -1.02481301 -9.83820492 -1.02481301 0 0 Z" stroke-linecap="round"/>
</g>
		<g transform="matrix(1 0 0 1 93.2427 -45)">
<path style="stroke: none; stroke-width: 1; stroke-dasharray: none; stroke-linecap: butt; stroke-dashoffset: 0; stroke-linejoin: miter; stroke-miterlimit: 4; is-custom-font: none; font-file-url: none; fill: rgb(252,222,217); fill-rule: nonzero; opacity: 1;" transform=" translate(-13.2427, -25)" d="M 0 0 C 8.01904642 0.43740253 14.01002283 2.88099108 19.625 8.73828125 C 28.30380622 19.66919335 26.46906327 36.95282486 26 50 C 22.52011052 48.86546069 19.22740018 47.73783087 16 46 C 16 45.34 16 44.68 16 44 C 12.37 43.67 8.74 43.34 5 43 C 4.88406494 41.94611084 4.76812988 40.89222168 4.64868164 39.80639648 C 4.21557144 35.87202605 3.78097625 31.9378208 3.34594727 28.00366211 C 3.1583716 26.30546419 2.97119113 24.60722256 2.78442383 22.90893555 C 2.51489114 20.4587037 2.24390696 18.00863593 1.97265625 15.55859375 C 1.89032242 14.80726669 1.80798859 14.05593964 1.72315979 13.28184509 C 1.22975958 8.84031164 0.65482354 4.42069589 0 0 Z" stroke-linecap="round"/>
</g>
		<g transform="matrix(1 0 0 1 -58.7511 51)">
<path style="stroke: none; stroke-width: 1; stroke-dasharray: none; stroke-linecap: butt; stroke-dashoffset: 0; stroke-linejoin: miter; stroke-miterlimit: 4; is-custom-font: none; font-file-url: none; fill: rgb(252,222,218); fill-rule: nonzero; opacity: 1;" transform=" translate(14.7511, -16)" d="M 0 0 C 3.41755193 6.83510387 0.22036431 17.17443563 -2 24 C -3.60546875 26.38671875 -3.60546875 26.38671875 -5 28 C -5.99 27.67 -6.98 27.34 -8 27 C -8.70125 27.61875 -9.4025 28.2375 -10.125 28.875 C -14.11183148 31.82178849 -17.09429202 31.70712191 -22 32 C -22 26.06 -22 20.12 -22 14 C -23.32 14.99 -24.64 15.98 -26 17 C -26 16.34 -26 15.68 -26 15 C -27.65 15 -29.3 15 -31 15 C -29 13 -29 13 -26.3125 12.61328125 C -22.36795017 11.88298134 -19.38821106 10.22560512 -16 8.1875 C -15.40960938 7.84396484 -14.81921875 7.50042969 -14.2109375 7.14648438 C -11.30183673 5.43882941 -8.52282645 3.6679285 -5.75 1.73828125 C -3 0 -3 0 0 0 Z" stroke-linecap="round"/>
</g>
		<g transform="matrix(1 0 0 1 25 -67.7208)">
<path style="stroke: none; stroke-width: 1; stroke-dasharray: none; stroke-linecap: butt; stroke-dashoffset: 0; stroke-linejoin: miter; stroke-miterlimit: 4; is-custom-font: none; font-file-url: none; fill: rgb(234,152,98); fill-rule: nonzero; opacity: 1;" transform=" translate(24.1118, -13.485)" d="M 0 0 C 2.01624157 0.01833836 4.03202317 0.02050843 6.04833984 0.02026367 C 15.95090907 0.06478072 15.95090907 0.06478072 20.69628906 0.77880859 C 23.77751256 1.49525524 23.77751256 1.49525524 25.88818359 0.20581055 C 26.38318359 1.69081055 26.38318359 1.69081055 26.88818359 3.20581055 C 26.1948291 3.22039307 25.50147461 3.23497559 24.78710938 3.25 C -8.23584885 4.02248282 -41.22885586 9.95173136 -70.34228516 26.47143555 C -72.11181641 27.20581055 -72.11181641 27.20581055 -75.11181641 26.20581055 C -72.0463457 22.66872897 -69.52541267 21.58505938 -65.11181641 20.20581055 C -62.76920032 18.82654282 -62.76920032 18.82654282 -61.11181641 17.20581055 C -61.11181641 16.54581055 -61.11181641 15.88581055 -61.11181641 15.20581055 C -49.25836232 8.53824262 -35.23957844 5.46993379 -22.11181641 2.20581055 C -21.48146484 2.0241333 -20.85111328 1.84245605 -20.20166016 1.65527344 C -13.5079021 -0.11296298 -6.89104162 -0.06481923 0 0 Z" stroke-linecap="round"/>
</g>
		<g transform="matrix(1 0 0 1 37.5 76.6826)">
<path style="stroke: none; stroke-width: 1; stroke-dasharray: none; stroke-linecap: butt; stroke-dashoffset: 0; stroke-linejoin: miter; stroke-miterlimit: 4; is-custom-font: none; font-file-url: none; fill: rgb(229,85,57); fill-rule: nonzero; opacity: 1;" transform=" translate(43.5, -10.6826)" d="M 0 0 C 0.625 1.8125 0.625 1.8125 1 4 C 0.34 4.99 -0.32 5.98 -1 7 C -1.28875 8.010625 -1.5775 9.02125 -1.875 10.0625 C -3 13 -3 13 -4.875 14.125 C -5.926875 14.558125 -5.926875 14.558125 -7 15 C -7.598125 15.680625 -8.19625 16.36125 -8.8125 17.0625 C -11.80453031 19.71258399 -14.05240767 19.67103397 -18 20 C -19.19367188 20.165 -20.38734375 20.33 -21.6171875 20.5 C -35.07383016 22.18671842 -48.58225057 21.22376451 -61.9375 19.1875 C -63.03239746 19.0222583 -64.12729492 18.8570166 -65.25537109 18.68676758 C -70.93064355 17.75116215 -75.84120033 16.56105418 -81 14 C -81.33 14.99 -81.66 15.98 -82 17 C -83.98 14.69 -85.96 12.38 -88 10 C -84.9519808 10.53824149 -82.00093167 11.26075129 -79.03125 12.12109375 C -78.29390625 12.33443359 -77.5565625 12.54777344 -76.796875 12.76757812 C -75.29546733 13.2054887 -73.79539397 13.6480073 -72.296875 14.09570312 C -61.12226544 17.30358673 -50.03205554 18.34572222 -38.4375 18.3125 C -37.30892578 18.32861328 -36.18035156 18.34472656 -35.01757812 18.36132812 C -24.58854082 18.36732527 -14.44793109 17.56277505 -6.69140625 9.984375 C -4.05056619 6.8861146 -1.93232648 3.576662 0 0 Z" stroke-linecap="round"/>
</g>
		<g transform="matrix(1 0 0 1 97.9635 17.5)">
<path style="stroke: none; stroke-width: 1; stroke-dasharray: none; stroke-linecap: butt; stroke-dashoffset: 0; stroke-linejoin: miter; stroke-miterlimit: 4; is-custom-font: none; font-file-url: none; fill: rgb(231,84,67); fill-rule: nonzero; opacity: 1;" transform=" translate(10.0364, -21.5)" d="M 0 0 C 0.33 0.99 0.66 1.98 1 3 C 0.3503125 3.5878125 0.3503125 3.5878125 -0.3125 4.1875 C -2.13858339 6.01043451 -2.13858339 6.01043451 -3.5 8.625 C -5 11 -5 11 -8 12 C -7.79375 12.721875 -7.5875 13.44375 -7.375 14.1875 C -6.9256327 17.55775472 -7.26688531 19.0852162 -9 22 C -11.5 23.25 -11.5 23.25 -14 24 C -14.66 24.33 -15.32 24.66 -16 25 C -16.33 25 -16.66 25 -17 25 C -17.12117188 26.21558594 -17.24234375 27.43117188 -17.3671875 28.68359375 C -17.53597078 30.26828117 -17.70526816 31.8529139 -17.875 33.4375 C -17.95363281 34.23994141 -18.03226562 35.04238281 -18.11328125 35.86914062 C -18.33845763 37.92170994 -18.66222587 39.96293009 -19 42 C -19.99 42.495 -19.99 42.495 -21 43 C -21.10427375 39.97606126 -21.08984064 37.0219124 -21 34 C -20.99226563 32.90171875 -20.98453125 31.8034375 -20.9765625 30.671875 C -20.56685206 24.25778745 -19.76298548 20.06664974 -14.91992188 15.55541992 C -13.32184979 14.19545669 -11.70165335 12.86964118 -10.06640625 11.5546875 C -6.00913385 8.17448858 -3.01738694 4.30296378 0 0 Z" stroke-linecap="round"/>
</g>
		<g transform="matrix(1 0 0 1 2.5 -143.2713)">
<path style="stroke: none; stroke-width: 1; stroke-dasharray: none; stroke-linecap: butt; stroke-dashoffset: 0; stroke-linejoin: miter; stroke-miterlimit: 4; is-custom-font: none; font-file-url: none; fill: rgb(176,66,63); fill-rule: nonzero; opacity: 1;" transform=" translate(29.5, 1.2713)" d="M 0 0 C 0 0.33 0 0.66 0 1 C -2.62506802 1.02690844 -5.24986173 1.04679404 -7.875 1.0625 C -8.62136719 1.07087891 -9.36773437 1.07925781 -10.13671875 1.08789062 C -15.7734375 1.11328125 -15.7734375 1.11328125 -18 0 C -21.06242321 -0.08711775 -24.10186465 -0.1154846 -27.1640625 -0.09765625 C -28.07127045 -0.0962413 -28.97847839 -0.09482635 -29.91317749 -0.09336853 C -32.81715155 -0.08776096 -35.72104915 -0.07520718 -38.625 -0.0625 C -40.59114472 -0.05748598 -42.55729065 -0.0529229 -44.5234375 -0.04882812 C -49.3489879 -0.03778906 -54.17448097 -0.02051935 -59 0 C -59 -0.33 -59 -0.66 -59 -1 C -39.27727529 -5.22629815 -19.70743884 -3.98826215 0 0 Z" stroke-linecap="round"/>
</g>
		<g transform="matrix(1 0 0 1 -26 37.5916)">
<path style="stroke: none; stroke-width: 1; stroke-dasharray: none; stroke-linecap: butt; stroke-dashoffset: 0; stroke-linejoin: miter; stroke-miterlimit: 4; is-custom-font: none; font-file-url: none; fill: rgb(227,138,92); fill-rule: nonzero; opacity: 1;" transform=" translate(8.4141, -12.8143)" d="M 0 0 C 0.52335937 0.40347656 1.04671875 0.80695313 1.5859375 1.22265625 C 0.8434375 1.47015625 0.1009375 1.71765625 -0.6640625 1.97265625 C -4.81776726 3.86070387 -6.91171022 6.46912783 -9.4140625 10.22265625 C -10.08953125 10.47789062 -10.765 10.733125 -11.4609375 10.99609375 C -13.75758447 12.13098704 -13.75758447 12.13098704 -14.2421875 15.26171875 C -14.38140625 16.44507813 -14.520625 17.6284375 -14.6640625 18.84765625 C -14.81359375 20.03617187 -14.963125 21.2246875 -15.1171875 22.44921875 C -15.26414063 23.82207031 -15.26414063 23.82207031 -15.4140625 25.22265625 C -16.4040625 25.55265625 -17.3940625 25.88265625 -18.4140625 26.22265625 C -18.29940829 23.99293352 -18.17191484 21.76386872 -18.0390625 19.53515625 C -17.96945313 18.29378906 -17.89984375 17.05242187 -17.828125 15.7734375 C -17.22118045 10.56860166 -16.69568615 8.24346431 -12.515625 4.9140625 C -11.36568327 4.19007395 -10.20643301 3.48069309 -9.0390625 2.78515625 C -8.4615625 2.40939453 -7.8840625 2.03363281 -7.2890625 1.64648438 C -3.00745965 -0.96842147 -3.00745965 -0.96842147 0 0 Z" stroke-linecap="round"/>
</g>
		<g transform="matrix(1 0 0 1 -100.0683 16.5)">
<path style="stroke: none; stroke-width: 1; stroke-dasharray: none; stroke-linecap: butt; stroke-dashoffset: 0; stroke-linejoin: miter; stroke-miterlimit: 4; is-custom-font: none; font-file-url: none; fill: rgb(214,93,88); fill-rule: nonzero; opacity: 1;" transform=" translate(3.0684, -19.5)" d="M 0 0 C 0.66 0 1.32 0 2 0 C 0.95740058 2.64547423 -0.11617186 5.2566342 -1.2890625 7.84765625 C -5.6428218 18.3246852 -5.50648995 27.81219971 -5 39 C -8.17415895 34.23876157 -8.15340439 30.28885698 -8.125 24.75 C -8.12886719 24.01136719 -8.13273438 23.27273438 -8.13671875 22.51171875 C -8.12861762 17.91838069 -7.75255874 13.54407604 -7 9 C -6.896875 8.278125 -6.79375 7.55625 -6.6875 6.8125 C -5.71484254 4.24822124 -4.00885475 2.81444946 -2 1 C -1.67 1.33 -1.34 1.66 -1 2 C -0.67 1.34 -0.34 0.68 0 0 Z" stroke-linecap="round"/>
</g>
		<g transform="matrix(1 0 0 1 40 -113.5)">
<path style="stroke: none; stroke-width: 1; stroke-dasharray: none; stroke-linecap: butt; stroke-dashoffset: 0; stroke-linejoin: miter; stroke-miterlimit: 4; is-custom-font: none; font-file-url: none; fill: rgb(231,91,59); fill-rule: nonzero; opacity: 1;" transform=" translate(-24, -13.5)" d="M 0 0 C 3.63 0 7.26 0 11 0 C 11 0.66 11 1.32 11 2 C 12.32 2 13.64 2 15 2 C 15 2.66 15 3.32 15 4 C 15.69609375 3.93683594 16.3921875 3.87367187 17.109375 3.80859375 C 26.67070692 4.44170897 37.44784867 13.17396404 43.8828125 19.99609375 C 45.29608405 21.62957273 46.65487049 23.30996548 48 25 C 47.67 25.66 47.34 26.32 47 27 C 46.236875 26.01 45.47375 25.02 44.6875 24 C 33.11571724 10.61674658 16.48552324 5.46195 0 1 C 0 0.67 0 0.34 0 0 Z" stroke-linecap="round"/>
</g>
		<g transform="matrix(1 0 0 1 51.5 -79.2406)">
<path style="stroke: none; stroke-width: 1; stroke-dasharray: none; stroke-linecap: butt; stroke-dashoffset: 0; stroke-linejoin: miter; stroke-miterlimit: 4; is-custom-font: none; font-file-url: none; fill: rgb(237,151,88); fill-rule: nonzero; opacity: 1;" transform=" translate(-8.793, -1.9899)" d="M 0 0 C 1.96356445 0.00290039 1.96356445 0.00290039 3.96679688 0.00585938 C 4.64685791 0.01206299 5.32691895 0.0182666 6.02758789 0.0246582 C 8.08818065 0.04281641 10.14832021 0.04516828 12.20898438 0.04492188 C 18.35196166 0.07206316 24.21636972 0.25710604 30.29296875 1.23046875 C 30.29296875 1.56046875 30.29296875 1.89046875 30.29296875 2.23046875 C 29.41036377 2.2555249 28.52775879 2.28058105 27.6184082 2.30639648 C 24.3289026 2.40180405 21.03955693 2.50102068 17.75024414 2.6027832 C 16.329391 2.64596679 14.90849149 2.68765283 13.48754883 2.7277832 C 11.43947405 2.7858897 9.3916291 2.84946513 7.34375 2.9140625 C 6.11309814 2.95072021 4.88244629 2.98737793 3.61450195 3.02514648 C 0.37079647 3.14439355 0.37079647 3.14439355 -2.44067383 3.80883789 C -5.59897497 4.39640506 -7.77148392 3.39103397 -10.70703125 2.23046875 C -7.12468164 -0.00303633 -4.16972861 -0.01438129 0 0 Z M -12.70703125 2.23046875 C -10.70703125 3.23046875 -10.70703125 3.23046875 -10.70703125 3.23046875 Z" stroke-linecap="round"/>
</g>
		<g transform="matrix(1 0 0 1 -83.3624 -65.5)">
<path style="stroke: none; stroke-width: 1; stroke-dasharray: none; stroke-linecap: butt; stroke-dashoffset: 0; stroke-linejoin: miter; stroke-miterlimit: 4; is-custom-font: none; font-file-url: none; fill: rgb(229,87,59); fill-rule: nonzero; opacity: 1;" transform=" translate(5.3624, -25.5)" d="M 0 0 C 0.66 0 1.32 0 2 0 C 0.55677841 3.01014789 -1.0991124 5.80014252 -2.875 8.625 C -11.30623629 22.80104925 -10.50116593 34.86246623 -9 51 C -13.87791202 42.5449525 -13.1776616 28.95677669 -11.328125 19.6015625 C -10.64327872 17.34673843 -9.9160084 15.17006753 -9 13 C -8.34 13 -7.68 13 -7 13 C -6.71125 12.278125 -6.4225 11.55625 -6.125 10.8125 C -5.08333333 8.20833333 -4.04166667 5.60416667 -3 3 C -2.34 3 -1.68 3 -1 3 C -0.67 2.01 -0.34 1.02 0 0 Z" stroke-linecap="round"/>
</g>
		<g transform="matrix(1 0 0 1 138.0559 36)">
<path style="stroke: none; stroke-width: 1; stroke-dasharray: none; stroke-linecap: butt; stroke-dashoffset: 0; stroke-linejoin: miter; stroke-miterlimit: 4; is-custom-font: none; font-file-url: none; fill: rgb(202,76,70); fill-rule: nonzero; opacity: 1;" transform=" translate(3.9441, -20)" d="M 0 0 C 0.33 0 0.66 0 1 0 C 1.88528753 13.94327863 -2.61146749 27.30161396 -8 40 C -8.33 40 -8.66 40 -9 40 C -9 38.02 -9 36.04 -9 34 C -8.34 34 -7.68 34 -7 34 C -5.47477093 27.57224892 -4.38114232 21.16782615 -3.46484375 14.625 C -3 12 -3 12 -2 11 C -1.79231771 9.52603261 -1.63283983 8.0450874 -1.5 6.5625 C -1.10958904 2.21917808 -1.10958904 2.21917808 0 0 Z" stroke-linecap="round"/>
</g>
		<g transform="matrix(1 0 0 1 -50.3196 43.5)">
<path style="stroke: none; stroke-width: 1; stroke-dasharray: none; stroke-linecap: butt; stroke-dashoffset: 0; stroke-linejoin: miter; stroke-miterlimit: 4; is-custom-font: none; font-file-url: none; fill: rgb(220,201,199); fill-rule: nonzero; opacity: 1;" transform=" translate(6.3196, -8.5)" d="M 0 0 C 2.44433951 4.88867901 1.05609621 11.85153098 0 17 C -0.33 15.68 -0.66 14.36 -1 13 C -1.66 13 -2.32 13 -3 13 C -2.67 10.03 -2.34 7.06 -2 4 C -5.40312738 5.05875074 -8.01353231 6.00902154 -11 8 C -11.99 7.67 -12.98 7.34 -14 7 C -12.23462904 5.82508418 -10.46250287 4.66031316 -8.6875 3.5 C -7.70136719 2.8503125 -6.71523437 2.200625 -5.69921875 1.53125 C -3 0 -3 0 0 0 Z" stroke-linecap="round"/>
</g>
		<g transform="matrix(1 0 0 1 -98.5 103.5)">
<path style="stroke: none; stroke-width: 1; stroke-dasharray: none; stroke-linecap: butt; stroke-dashoffset: 0; stroke-linejoin: miter; stroke-miterlimit: 4; is-custom-font: none; font-file-url: none; fill: rgb(205,79,77); fill-rule: nonzero; opacity: 1;" transform=" translate(-14.5, -13.5)" d="M 0 0 C 2.84540499 1.31951748 5.17105586 2.78485497 7.5625 4.8125 C 8.14128906 5.29332031 8.72007812 5.77414062 9.31640625 6.26953125 C 11 8 11 8 12.41015625 10.41796875 C 14.22734282 13.36922261 16.25605909 15.23927289 18.875 17.5 C 22.37795818 20.56764905 25.76288727 23.65498351 29 27 C 23.71453395 25.49131333 20.47674474 22.02889226 16.625 18.3125 C 15.99078125 17.71244141 15.3565625 17.11238281 14.703125 16.49414062 C 12.78906837 14.67578683 10.89319782 12.84004002 9 11 C 8.3512793 10.38044434 7.70255859 9.76088867 7.03417969 9.12255859 C 6.41188477 8.51879395 5.78958984 7.9150293 5.1484375 7.29296875 C 4.59075684 6.75567139 4.03307617 6.21837402 3.45849609 5.66479492 C 1.90026934 3.88616281 0.96287539 2.15081193 0 0 Z" stroke-linecap="round"/>
</g>
		<g transform="matrix(1 0 0 1 -42 -44.3427)">
<path style="stroke: none; stroke-width: 1; stroke-dasharray: none; stroke-linecap: butt; stroke-dashoffset: 0; stroke-linejoin: miter; stroke-miterlimit: 4; is-custom-font: none; font-file-url: none; fill: rgb(227,157,118); fill-rule: nonzero; opacity: 1;" transform=" translate(16, -8.6572)" d="M 0 0 C -0.99012085 0.55143677 -0.99012085 0.55143677 -2.00024414 1.11401367 C -5.02340072 2.80090695 -8.04295823 4.49414536 -11.0625 6.1875 C -12.10083984 6.76564453 -13.13917969 7.34378906 -14.20898438 7.93945312 C -18.65187675 10.4359355 -23.01102576 12.90476939 -27.12109375 15.92578125 C -30 18 -30 18 -32 18 C -32 17.34 -32 16.68 -32 16 C -30.02 15.34 -28.04 14.68 -26 14 C -26 13.34 -26 12.68 -26 12 C -23 10 -23 10 -20 10 C -20 9.34 -20 8.68 -20 8 C -19.01 8 -18.02 8 -17 8 C -17 7.34 -17 6.68 -17 6 C -15.68 6 -14.36 6 -13 6 C -13 5.34 -13 4.68 -13 4 C -12.01 4 -11.02 4 -10 4 C -10 3.34 -10 2.68 -10 2 C -3.375 -1.125 -3.375 -1.125 0 0 Z" stroke-linecap="round"/>
</g>
		<g transform="matrix(1 0 0 1 0 -125.6006)">
<path style="stroke: none; stroke-width: 1; stroke-dasharray: none; stroke-linecap: butt; stroke-dashoffset: 0; stroke-linejoin: miter; stroke-miterlimit: 4; is-custom-font: none; font-file-url: none; fill: rgb(253,151,100); fill-rule: nonzero; opacity: 1;" transform=" translate(0.5625, -1.6493)" d="M 0 0 C 1.7315332 -0.01160156 1.7315332 -0.01160156 3.49804688 -0.0234375 C 10.38183161 -0.00781916 16.75383343 0.57932121 23.4375 2.25 C 23.4375 2.58 23.4375 2.91 23.4375 3.25 C 22.03564453 3.14171875 22.03564453 3.14171875 20.60546875 3.03125 C 12.73078903 2.47484476 4.89555188 2.14303152 -3 2.125 C -3.83442627 2.12048828 -4.66885254 2.11597656 -5.52856445 2.11132812 C -9.35397837 1.74796352 -9.35397837 1.74796352 -12.5625 3.25 C -14.58214199 3.32244053 -16.60417124 3.33377188 -18.625 3.3125 C -19.72972656 3.30347656 -20.83445313 3.29445313 -21.97265625 3.28515625 C -23.25462891 3.26775391 -23.25462891 3.26775391 -24.5625 3.25 C -24.5625 2.92 -24.5625 2.59 -24.5625 2.25 C -16.31683439 0.41786172 -8.43118789 -0.05668025 0 0 Z" stroke-linecap="round"/>
</g>
		<g transform="matrix(1 0 0 1 -41 59)">
<path style="stroke: none; stroke-width: 1; stroke-dasharray: none; stroke-linecap: butt; stroke-dashoffset: 0; stroke-linejoin: miter; stroke-miterlimit: 4; is-custom-font: none; font-file-url: none; fill: rgb(212,131,90); fill-rule: nonzero; opacity: 1;" transform=" translate(4, -8)" d="M 0 0 C 1.625 1.6875 1.625 1.6875 3 4 C 1.85128375 9.5999917 -2.4300972 12.95339813 -7 16 C -9.1875 15.625 -9.1875 15.625 -11 15 C -10.54109375 14.67128906 -10.0821875 14.34257812 -9.609375 14.00390625 C -4.48394039 10.03061766 -2.17031136 6.06608765 0 0 Z" stroke-linecap="round"/>
</g>
		<g transform="matrix(1 0 0 1 111.1407 -25.5)">
<path style="stroke: none; stroke-width: 1; stroke-dasharray: none; stroke-linecap: butt; stroke-dashoffset: 0; stroke-linejoin: miter; stroke-miterlimit: 4; is-custom-font: none; font-file-url: none; fill: rgb(215,93,84); fill-rule: nonzero; opacity: 1;" transform=" translate(-0.1407, -21.5)" d="M 0 0 C 2.52137367 3.82024417 2.28919481 7.75063826 2.265625 12.16015625 C 2.26753845 12.94643906 2.2694519 13.73272186 2.27142334 14.54283142 C 2.27278161 16.20116497 2.26911019 17.85950927 2.26074219 19.51782227 C 2.25002303 22.05704568 2.2606567 24.59556394 2.2734375 27.13476562 C 2.27211612 28.74739739 2.26955418 30.36002873 2.265625 31.97265625 C 2.26967346 32.73208023 2.27372192 33.49150421 2.27789307 34.27394104 C 2.24422005 38.05346843 2.14864654 39.77703018 0 43 C -0.66 43 -1.32 43 -2 43 C -1.67402832 42.18901855 -1.34805664 41.37803711 -1.01220703 40.54248047 C 0.19092031 36.33182496 0.25297488 32.66828075 0.1953125 28.3203125 C 0.1924826 27.50754852 0.18965271 26.69478455 0.18673706 25.85739136 C 0.17560619 23.27977325 0.15051515 20.70251181 0.125 18.125 C 0.11496101 16.36979671 0.10583677 14.61458794 0.09765625 12.859375 C 0.07569015 8.57278074 0.04120978 4.2864507 0 0 Z" stroke-linecap="round"/>
</g>
		<g transform="matrix(1 0 0 1 -73 -124)">
<path style="stroke: none; stroke-width: 1; stroke-dasharray: none; stroke-linecap: butt; stroke-dashoffset: 0; stroke-linejoin: miter; stroke-miterlimit: 4; is-custom-font: none; font-file-url: none; fill: rgb(215,79,75); fill-rule: nonzero; opacity: 1;" transform=" translate(10, -6)" d="M 0 0 C -0.39143023 2.27029534 -0.88741278 3.83408198 -2.1875 5.75 C -4 7 -4 7 -6.6875 6.875 C -10.89316083 7.03370418 -12.91062429 8.60469063 -16.265625 11.00390625 C -16.83796875 11.33261719 -17.4103125 11.66132813 -18 12 C -18.66 11.67 -19.32 11.34 -20 11 C -17.7516034 9.53914338 -15.50137827 8.08124864 -13.25 6.625 C -12.61578125 6.2125 -11.9815625 5.8 -11.328125 5.375 C -3.00554435 0 -3.00554435 0 0 0 Z" stroke-linecap="round"/>
</g>
		<g transform="matrix(1 0 0 1 -10 20)">
<path style="stroke: none; stroke-width: 1; stroke-dasharray: none; stroke-linecap: butt; stroke-dashoffset: 0; stroke-linejoin: miter; stroke-miterlimit: 4; is-custom-font: none; font-file-url: none; fill: rgb(208,142,92); fill-rule: nonzero; opacity: 1;" transform=" translate(9, -6)" d="M 0 0 C -0.33 0.99 -0.66 1.98 -1 3 C -2.32 3 -3.64 3 -5 3 C -5.66 4.65 -6.32 6.3 -7 8 C -7.66 8 -8.32 8 -9 8 C -10.37310707 9.29233607 -11.71034824 10.62437146 -13 12 C -13 11.34 -13 10.68 -13 10 C -14.65 10 -16.3 10 -18 10 C -13.67630171 6.12358085 -6.04191557 0 0 0 Z" stroke-linecap="round"/>
</g>
		<g transform="matrix(1 0 0 1 -99.5331 4)">
<path style="stroke: none; stroke-width: 1; stroke-dasharray: none; stroke-linecap: butt; stroke-dashoffset: 0; stroke-linejoin: miter; stroke-miterlimit: 4; is-custom-font: none; font-file-url: none; fill: rgb(224,86,76); fill-rule: nonzero; opacity: 1;" transform=" translate(2.5331, -7)" d="M 0 0 C 0.66 0 1.32 0 2 0 C 0.41037341 4.03520597 -1.28232318 8.01811282 -3 12 C -3.66 12 -4.32 12 -5 12 C -5.33 12.66 -5.66 13.32 -6 14 C -7.14507772 8.80310881 -7.14507772 8.80310881 -7 6 C -4.5625 3 -4.5625 3 -2 1 C -1.67 1.33 -1.34 1.66 -1 2 C -0.67 1.34 -0.34 0.68 0 0 Z" stroke-linecap="round"/>
</g>
		<g transform="matrix(1 0 0 1 88 8)">
<path style="stroke: none; stroke-width: 1; stroke-dasharray: none; stroke-linecap: butt; stroke-dashoffset: 0; stroke-linejoin: miter; stroke-miterlimit: 4; is-custom-font: none; font-file-url: none; fill: rgb(230,175,121); fill-rule: nonzero; opacity: 1;" transform=" translate(-2, -10)" d="M 0 0 C 1.32 0 2.64 0 4 0 C 3.67 6.27 3.34 12.54 3 19 C 2.01 19.33 1.02 19.66 0 20 C 0 13.4 0 6.8 0 0 Z" stroke-linecap="round"/>
</g>
		<g transform="matrix(1 0 0 1 -40.5 137.3327)">
<path style="stroke: none; stroke-width: 1; stroke-dasharray: none; stroke-linecap: butt; stroke-dashoffset: 0; stroke-linejoin: miter; stroke-miterlimit: 4; is-custom-font: none; font-file-url: none; fill: rgb(206,128,91); fill-rule: nonzero; opacity: 1;" transform=" translate(-11.5, -2.3327)" d="M 0 0 C 2.64 0 5.28 0 8 0 C 8 0.66 8 1.32 8 2 C 9.7634375 1.690625 9.7634375 1.690625 11.5625 1.375 C 15.90045367 0.81052474 18.90471417 1.54958627 23 3 C 23 3.33 23 3.66 23 4 C 14.35629275 5.5653958 8.09053311 4.28986774 0 1 C 0 0.67 0 0.34 0 0 Z" stroke-linecap="round"/>
</g>
		<g transform="matrix(1 0 0 1 -15 -59.02)">
<path style="stroke: none; stroke-width: 1; stroke-dasharray: none; stroke-linecap: butt; stroke-dashoffset: 0; stroke-linejoin: miter; stroke-miterlimit: 4; is-custom-font: none; font-file-url: none; fill: rgb(225,160,119); fill-rule: nonzero; opacity: 1;" transform=" translate(11, -3.98)" d="M 0 0 C -1.03640625 0.48210937 -2.0728125 0.96421875 -3.140625 1.4609375 C -4.51043032 2.09892902 -5.88022123 2.73695148 -7.25 3.375 C -7.93191406 3.69210938 -8.61382812 4.00921875 -9.31640625 4.3359375 C -9.98027344 4.6453125 -10.64414063 4.9546875 -11.328125 5.2734375 C -12.29202148 5.71961426 -12.29202148 5.71961426 -13.27539062 6.17480469 C -14.64152297 6.82847504 -15.97618566 7.5478593 -17.296875 8.2890625 C -19 9 -19 9 -22 8 C -18.9231191 4.44975281 -16.48731713 3.26999541 -12 2 C -9.68218374 1.16653867 -7.3650173 0.33163843 -5.05078125 -0.51171875 C -3 -1 -3 -1 0 0 Z" stroke-linecap="round"/>
</g>
		<g transform="matrix(1 0 0 1 74 123.5)">
<path style="stroke: none; stroke-width: 1; stroke-dasharray: none; stroke-linecap: butt; stroke-dashoffset: 0; stroke-linejoin: miter; stroke-miterlimit: 4; is-custom-font: none; font-file-url: none; fill: rgb(219,81,69); fill-rule: nonzero; opacity: 1;" transform=" translate(4, -4.5)" d="M 0 0 C 0.99 0.33 1.98 0.66 3 1 C 1.60823368 1.96423026 0.2113777 2.92111602 -1.1875 3.875 C -1.96480469 4.40867187 -2.74210937 4.94234375 -3.54296875 5.4921875 C -5.9676609 6.98015439 -8.3333499 8.02428078 -11 9 C -11 8.01 -11 7.02 -11 6 C -10.01 6 -9.02 6 -8 6 C -8 5.01 -8 4.02 -8 3 C -7.34 3 -6.68 3 -6 3 C -6 2.34 -6 1.68 -6 1 C -4 0 -4 0 0 0 Z" stroke-linecap="round"/>
</g>
		<g transform="matrix(1 0 0 1 -66.5 47.5)">
<path style="stroke: none; stroke-width: 1; stroke-dasharray: none; stroke-linecap: butt; stroke-dashoffset: 0; stroke-linejoin: miter; stroke-miterlimit: 4; is-custom-font: none; font-file-url: none; fill: rgb(211,200,201); fill-rule: nonzero; opacity: 1;" transform=" translate(8.5, -4.5)" d="M 0 0 C -0.66 1.65 -1.32 3.3 -2 5 C -3.32 5 -4.64 5 -6 5 C -6.66 6.32 -7.32 7.64 -8 9 C -8 8.01 -8 7.02 -8 6 C -9.32 6.99 -10.64 7.98 -12 9 C -12 8.34 -12 7.68 -12 7 C -13.65 7 -15.3 7 -17 7 C -15 5 -15 5 -12.3125 4.625 C -7.97453581 3.80651619 -4.17982085 0 0 0 Z" stroke-linecap="round"/>
</g>
		<g transform="matrix(1 0 0 1 -35 -121)">
<path style="stroke: none; stroke-width: 1; stroke-dasharray: none; stroke-linecap: butt; stroke-dashoffset: 0; stroke-linejoin: miter; stroke-miterlimit: 4; is-custom-font: none; font-file-url: none; fill: rgb(231,88,58); fill-rule: nonzero; opacity: 1;" transform=" translate(5, -5)" d="M 0 0 C 3.125 0.375 3.125 0.375 6 1 C 3.2723031 2.40697409 0.53488792 3.62225752 -2.328125 4.7265625 C -3.12734375 5.0359375 -3.9265625 5.3453125 -4.75 5.6640625 C -5.575 5.98117188 -6.4 6.29828125 -7.25 6.625 C -8.09046875 6.94984375 -8.9309375 7.2746875 -9.796875 7.609375 C -11.86391396 8.40800369 -13.93163369 9.20481676 -16 10 C -16 9.01 -16 8.02 -16 7 C -15.01257813 6.66226563 -14.02515625 6.32453125 -13.0078125 5.9765625 C -11.71343623 5.52634467 -10.41917113 5.07580716 -9.125 4.625 C -8.47402344 4.40328125 -7.82304687 4.1815625 -7.15234375 3.953125 C -4.23449455 2.93037374 -2.21443349 2.21443349 0 0 Z" stroke-linecap="round"/>
</g>
		<g transform="matrix(1 0 0 1 -84 65.5)">
<path style="stroke: none; stroke-width: 1; stroke-dasharray: none; stroke-linecap: butt; stroke-dashoffset: 0; stroke-linejoin: miter; stroke-miterlimit: 4; is-custom-font: none; font-file-url: none; fill: rgb(216,95,87); fill-rule: nonzero; opacity: 1;" transform=" translate(-8, -6.5)" d="M 0 0 C 0.42410156 0.38671875 0.84820312 0.7734375 1.28515625 1.171875 C 5.31297658 4.74822536 9.28516205 7.41146152 14 10 C 14.66 10.66 15.32 11.32 16 12 C 14.02 12.33 12.04 12.66 10 13 C 10 12.01 10 11.02 10 10 C 8.63875 9.690625 8.63875 9.690625 7.25 9.375 C 3.21401704 7.66746875 2.05798202 5.79935141 0 2 C 0 1.34 0 0.68 0 0 Z" stroke-linecap="round"/>
</g>
		<g transform="matrix(1 0 0 1 92 8)">
<path style="stroke: none; stroke-width: 1; stroke-dasharray: none; stroke-linecap: butt; stroke-dashoffset: 0; stroke-linejoin: miter; stroke-miterlimit: 4; is-custom-font: none; font-file-url: none; fill: rgb(253,239,223); fill-rule: nonzero; opacity: 1;" transform=" translate(-3, -8)" d="M 0 0 C 2.67927341 4.01891012 2.15601248 6.24161923 2 11 C 3.32 11.33 4.64 11.66 6 12 C 4.02 13.32 2.04 14.64 0 16 C 0 10.72 0 5.44 0 0 Z" stroke-linecap="round"/>
</g>
		<g transform="matrix(1 0 0 1 -60 69.9482)">
<path style="stroke: none; stroke-width: 1; stroke-dasharray: none; stroke-linecap: butt; stroke-dashoffset: 0; stroke-linejoin: miter; stroke-miterlimit: 4; is-custom-font: none; font-file-url: none; fill: rgb(204,124,110); fill-rule: nonzero; opacity: 1;" transform=" translate(12, -2.9481)" d="M 0 0 C 0 0.66 0 1.32 0 2 C -1.093125 2.28875 -2.18625 2.5775 -3.3125 2.875 C -7.04013845 3.81893204 -7.04013845 3.81893204 -10 6 C -13.35546875 5.9765625 -13.35546875 5.9765625 -17.1875 5.625 C -18.45980469 5.51414062 -19.73210937 5.40328125 -21.04296875 5.2890625 C -22.50669922 5.14597656 -22.50669922 5.14597656 -24 5 C -24 4.67 -24 4.34 -24 4 C -23.21496094 3.96261719 -22.42992187 3.92523438 -21.62109375 3.88671875 C -14.64528893 3.53914664 -14.64528893 3.53914664 -8.0625 1.4375 C -5.02440015 0.01145313 -3.29475851 -0.2995235 0 0 Z" stroke-linecap="round"/>
</g>
		<g transform="matrix(1 0 0 1 84.5971 55)">
<path style="stroke: none; stroke-width: 1; stroke-dasharray: none; stroke-linecap: butt; stroke-dashoffset: 0; stroke-linejoin: miter; stroke-miterlimit: 4; is-custom-font: none; font-file-url: none; fill: rgb(231,91,60); fill-rule: nonzero; opacity: 1;" transform=" translate(1.4029, -10)" d="M 0 0 C 0.33 0 0.66 0 1 0 C 1.39320004 12.07997886 1.39320004 12.07997886 -1 18 C -1.99 18.66 -2.98 19.32 -4 20 C -2.68 13.4 -1.36 6.8 0 0 Z" stroke-linecap="round"/>
</g>
		<g transform="matrix(1 0 0 1 -25.5 140.4821)">
<path style="stroke: none; stroke-width: 1; stroke-dasharray: none; stroke-linecap: butt; stroke-dashoffset: 0; stroke-linejoin: miter; stroke-miterlimit: 4; is-custom-font: none; font-file-url: none; fill: rgb(222,133,84); fill-rule: nonzero; opacity: 1;" transform=" translate(-2.5, -2.4821)" d="M 0 0 C 0.33 0.66 0.66 1.32 1 2 C 1.66 1.34 2.32 0.68 3 0 C 5.99332739 0.9977758 6.94766315 1.7522025 9 4 C 0.57142857 5.28571429 0.57142857 5.28571429 -4 4 C -2.68 2.68 -1.36 1.36 0 0 Z" stroke-linecap="round"/>
</g>
		<g transform="matrix(1 0 0 1 -48.6434 115.5)">
<path style="stroke: none; stroke-width: 1; stroke-dasharray: none; stroke-linecap: butt; stroke-dashoffset: 0; stroke-linejoin: miter; stroke-miterlimit: 4; is-custom-font: none; font-file-url: none; fill: rgb(253,136,92); fill-rule: nonzero; opacity: 1;" transform=" translate(0.6434, -9.5)" d="M 0 0 C 0.33 0 0.66 0 1 0 C 2.1819983 6.94958036 2.13522577 11.61342899 -1 18 C -1.66 18.33 -2.32 18.66 -3 19 C -2.68798326 16.95825942 -2.37536431 14.91661087 -2.0625 12.875 C -1.88847656 11.73804688 -1.71445313 10.60109375 -1.53515625 9.4296875 C -1.04410734 6.28267331 -0.52981281 3.14069217 0 0 Z" stroke-linecap="round"/>
</g>
		<g transform="matrix(1 0 0 1 -21.5 28.6232)">
<path style="stroke: none; stroke-width: 1; stroke-dasharray: none; stroke-linecap: butt; stroke-dashoffset: 0; stroke-linejoin: miter; stroke-miterlimit: 4; is-custom-font: none; font-file-url: none; fill: rgb(219,136,87); fill-rule: nonzero; opacity: 1;" transform=" translate(3.9375, -3.8732)" d="M 0 0 C 0.7734375 0.61875 0.7734375 0.61875 1.5625 1.25 C 0.840625 1.476875 0.11875 1.70375 -0.625 1.9375 C -3.96552117 3.49640988 -5.9199068 5.59254052 -8.4375 8.25 C -8.7675 8.25 -9.0975 8.25 -9.4375 8.25 C -9.4375 6.6 -9.4375 4.95 -9.4375 3.25 C -3.0375 -0.93461538 -3.0375 -0.93461538 0 0 Z" stroke-linecap="round"/>
</g>
		<g transform="matrix(1 0 0 1 6 11)">
<path style="stroke: none; stroke-width: 1; stroke-dasharray: none; stroke-linecap: butt; stroke-dashoffset: 0; stroke-linejoin: miter; stroke-miterlimit: 4; is-custom-font: none; font-file-url: none; fill: rgb(225,160,102); fill-rule: nonzero; opacity: 1;" transform=" translate(5, -4)" d="M 0 0 C 0.66 0.99 1.32 1.98 2 3 C 1.38125 3.28875 0.7625 3.5775 0.125 3.875 C -2.13325765 4.93720042 -2.13325765 4.93720042 -4 7 C -7 7.75 -7 7.75 -10 8 C -10.66 7.34 -11.32 6.68 -12 6 C -8.04 4.02 -4.08 2.04 0 0 Z" stroke-linecap="round"/>
</g>
		<g transform="matrix(1 0 0 1 135.3798 -49)">
<path style="stroke: none; stroke-width: 1; stroke-dasharray: none; stroke-linecap: butt; stroke-dashoffset: 0; stroke-linejoin: miter; stroke-miterlimit: 4; is-custom-font: none; font-file-url: none; fill: rgb(196,80,70); fill-rule: nonzero; opacity: 1;" transform=" translate(-3.3798, -10)" d="M 0 0 C 2.17260367 3.2589055 3.35021087 6.32149695 4.6875 10 C 5.14511719 11.2375 5.60273438 12.475 6.07421875 13.75 C 7 17 7 17 6 20 C 5.67 20 5.34 20 5 20 C 4.70996094 18.89591797 4.70996094 18.89591797 4.4140625 17.76953125 C 4.15367187 16.79371094 3.89328125 15.81789062 3.625 14.8125 C 3.36976563 13.84957031 3.11453125 12.88664063 2.8515625 11.89453125 C 2.06192448 9.00993656 2.06192448 9.00993656 0.8984375 6.38671875 C 0 4 0 4 0 0 Z" stroke-linecap="round"/>
</g>
		<g transform="matrix(1 0 0 1 91 -112)">
<path style="stroke: none; stroke-width: 1; stroke-dasharray: none; stroke-linecap: butt; stroke-dashoffset: 0; stroke-linejoin: miter; stroke-miterlimit: 4; is-custom-font: none; font-file-url: none; fill: rgb(206,76,69); fill-rule: nonzero; opacity: 1;" transform=" translate(-5, -4)" d="M 0 0 C 7.57142857 4 7.57142857 4 10 8 C 6.15276398 8 3.40334366 6.70167183 0 5 C 0 3.35 0 1.7 0 0 Z" stroke-linecap="round"/>
</g>
		<g transform="matrix(1 0 0 1 82 -77)">
<path style="stroke: none; stroke-width: 1; stroke-dasharray: none; stroke-linecap: butt; stroke-dashoffset: 0; stroke-linejoin: miter; stroke-miterlimit: 4; is-custom-font: none; font-file-url: none; fill: rgb(220,98,86); fill-rule: nonzero; opacity: 1;" transform=" translate(-4, -3)" d="M 0 0 C 2.31 0.33 4.62 0.66 7 1 C 7 1.66 7 2.32 7 3 C 7.66 3 8.32 3 9 3 C 9.33 3.99 9.66 4.98 10 6 C 4.06 4.515 4.06 4.515 -2 3 C -1.34 2.01 -0.68 1.02 0 0 Z" stroke-linecap="round"/>
</g>
		<g transform="matrix(1 0 0 1 103.5 2.5)">
<path style="stroke: none; stroke-width: 1; stroke-dasharray: none; stroke-linecap: butt; stroke-dashoffset: 0; stroke-linejoin: miter; stroke-miterlimit: 4; is-custom-font: none; font-file-url: none; fill: rgb(217,92,83); fill-rule: nonzero; opacity: 1;" transform=" translate(4.5, -6.5)" d="M 0 0 C 0.33 0.99 0.66 1.98 1 3 C 0.3503125 3.5878125 0.3503125 3.5878125 -0.3125 4.1875 C -2.13512023 5.99104472 -2.13512023 5.99104472 -3.375 8.5625 C -5.29492093 11.44238139 -6.73894457 12.03049703 -10 13 C -6.73279209 8.61105071 -3.45101522 4.24740335 0 0 Z" stroke-linecap="round"/>
</g>
		<g transform="matrix(1 0 0 1 -61.5 130)">
<path style="stroke: none; stroke-width: 1; stroke-dasharray: none; stroke-linecap: butt; stroke-dashoffset: 0; stroke-linejoin: miter; stroke-miterlimit: 4; is-custom-font: none; font-file-url: none; fill: rgb(198,82,73); fill-rule: nonzero; opacity: 1;" transform=" translate(-8.5, -4)" d="M 0 0 C 5.85659906 1.66153012 11.4590134 3.47041916 17 6 C 16.67 6.66 16.34 7.32 16 8 C 10.18738629 6.26017005 5.16830006 4.1889511 0 1 C 0 0.67 0 0.34 0 0 Z" stroke-linecap="round"/>
</g>
		<g transform="matrix(1 0 0 1 -69.5 -27)">
<path style="stroke: none; stroke-width: 1; stroke-dasharray: none; stroke-linecap: butt; stroke-dashoffset: 0; stroke-linejoin: miter; stroke-miterlimit: 4; is-custom-font: none; font-file-url: none; fill: rgb(232,155,110); fill-rule: nonzero; opacity: 1;" transform=" translate(-1.5, -4)" d="M 0 0 C 2.97 0.495 2.97 0.495 6 1 C 3.19195732 3.96404505 0.81684226 6.44499019 -3 8 C -3 7.01 -3 6.02 -3 5 C -2.34 4.67 -1.68 4.34 -1 4 C -0.34786708 1.97536745 -0.34786708 1.97536745 0 0 Z" stroke-linecap="round"/>
</g>
		<g transform="matrix(1 0 0 1 -77 121)">
<path style="stroke: none; stroke-width: 1; stroke-dasharray: none; stroke-linecap: butt; stroke-dashoffset: 0; stroke-linejoin: miter; stroke-miterlimit: 4; is-custom-font: none; font-file-url: none; fill: rgb(205,79,74); fill-rule: nonzero; opacity: 1;" transform=" translate(-7, -4)" d="M 0 0 C 5 2 5 2 10 4 C 10 4.66 10 5.32 10 6 C 11.32 5.67 12.64 5.34 14 5 C 14 5.66 14 6.32 14 7 C 12.328125 7.7109375 12.328125 7.7109375 10 8 C 7.421875 6.6015625 7.421875 6.6015625 4.75 4.625 C 3.85796875 3.97789062 2.9659375 3.33078125 2.046875 2.6640625 C 1.37140625 2.11492187 0.6959375 1.56578125 0 1 C 0 0.67 0 0.34 0 0 Z" stroke-linecap="round"/>
</g>
		<g transform="matrix(1 0 0 1 95.5 -70)">
<path style="stroke: none; stroke-width: 1; stroke-dasharray: none; stroke-linecap: butt; stroke-dashoffset: 0; stroke-linejoin: miter; stroke-miterlimit: 4; is-custom-font: none; font-file-url: none; fill: rgb(215,100,94); fill-rule: nonzero; opacity: 1;" transform=" translate(-6.5, -4)" d="M 0 0 C 2.31 0.33 4.62 0.66 7 1 C 7 1.66 7 2.32 7 3 C 8.65 3.33 10.3 3.66 12 4 C 12.33 5.32 12.66 6.64 13 8 C 8.71 5.69 4.42 3.38 0 1 C 0 0.67 0 0.34 0 0 Z" stroke-linecap="round"/>
</g>
		<g transform="matrix(1 0 0 1 -52.6396 125)">
<path style="stroke: none; stroke-width: 1; stroke-dasharray: none; stroke-linecap: butt; stroke-dashoffset: 0; stroke-linejoin: miter; stroke-miterlimit: 4; is-custom-font: none; font-file-url: none; fill: rgb(237,83,58); fill-rule: nonzero; opacity: 1;" transform=" translate(1.6396, -7)" d="M 0 0 C 1.25127906 3.54667178 0.72285053 5.72253438 -0.4375 9.25 C -0.72496094 10.14203125 -1.01242188 11.0340625 -1.30859375 11.953125 C -1.53675781 12.62859375 -1.76492187 13.3040625 -2 14 C -4 11 -4 11 -4 9 C -3.34 9 -2.68 9 -2 9 C -1.7834375 7.0509375 -1.7834375 7.0509375 -1.5625 5.0625 C -1.125 1.125 -1.125 1.125 0 0 Z" stroke-linecap="round"/>
</g>
		<g transform="matrix(1 0 0 1 -82.9175 -22)">
<path style="stroke: none; stroke-width: 1; stroke-dasharray: none; stroke-linecap: butt; stroke-dashoffset: 0; stroke-linejoin: miter; stroke-miterlimit: 4; is-custom-font: none; font-file-url: none; fill: rgb(225,86,65); fill-rule: nonzero; opacity: 1;" transform=" translate(-1.0825, -7)" d="M 0 0 C 0.33 0 0.66 0 1 0 C 1.66 3.96 2.32 7.92 3 12 C 2.01 12.66 1.02 13.32 0 14 C -1.03115279 10.73086376 -0.9638984 8.13958652 -0.5625 4.75 C -0.46066406 3.85796875 -0.35882813 2.9659375 -0.25390625 2.046875 C -0.17011719 1.37140625 -0.08632812 0.6959375 0 0 Z" stroke-linecap="round"/>
</g>
		<g transform="matrix(1 0 0 1 27.5 -73.9802)">
<path style="stroke: none; stroke-width: 1; stroke-dasharray: none; stroke-linecap: butt; stroke-dashoffset: 0; stroke-linejoin: miter; stroke-miterlimit: 4; is-custom-font: none; font-file-url: none; fill: rgb(223,157,116); fill-rule: nonzero; opacity: 1;" transform=" translate(8.5, -2.0198)" d="M 0 0 C -5.11356021 2.98291012 -11.10482642 4.36844835 -17 4 C -16.01 3.67 -15.02 3.34 -14 3 C -14 2.34 -14 1.68 -14 1 C -9.27616037 0.34843591 -4.78025483 -0.11950637 0 0 Z" stroke-linecap="round"/>
</g>
		<g transform="matrix(1 0 0 1 -88.5 -10)">
<path style="stroke: none; stroke-width: 1; stroke-dasharray: none; stroke-linecap: butt; stroke-dashoffset: 0; stroke-linejoin: miter; stroke-miterlimit: 4; is-custom-font: none; font-file-url: none; fill: rgb(212,94,88); fill-rule: nonzero; opacity: 1;" transform=" translate(1.5, -5)" d="M 0 0 C 0.99 0.33 1.98 0.66 3 1 C 0 4 -3 7 -6 10 C -5.45276317 6.62537285 -4.9451 4.91765 -3 2 C -2.01 2 -1.02 2 0 2 C 0 1.34 0 0.68 0 0 Z" stroke-linecap="round"/>
</g>
		<g transform="matrix(1 0 0 1 85 -68)">
<path style="stroke: none; stroke-width: 1; stroke-dasharray: none; stroke-linecap: butt; stroke-dashoffset: 0; stroke-linejoin: miter; stroke-miterlimit: 4; is-custom-font: none; font-file-url: none; fill: rgb(245,226,223); fill-rule: nonzero; opacity: 1;" transform=" translate(-5, -2)" d="M 0 0 C 7.75 0.75 7.75 0.75 10 3 C 6.7 3.33 3.4 3.66 0 4 C 0 2.68 0 1.36 0 0 Z" stroke-linecap="round"/>
</g>
		<g transform="matrix(1 0 0 1 96 -105.6172)">
<path style="stroke: none; stroke-width: 1; stroke-dasharray: none; stroke-linecap: butt; stroke-dashoffset: 0; stroke-linejoin: miter; stroke-miterlimit: 4; is-custom-font: none; font-file-url: none; fill: rgb(230,81,73); fill-rule: nonzero; opacity: 1;" transform=" translate(-5, -2.3828)" d="M 0 0 C 2.75 -0.3125 2.75 -0.3125 6 0 C 8.375 2.5 8.375 2.5 10 5 C 6.64566891 4.05066101 3.30753495 3.10251165 0 2 C 0 1.34 0 0.68 0 0 Z" stroke-linecap="round"/>
</g>
		<g transform="matrix(1 0 0 1 -125.5 70.5)">
<path style="stroke: none; stroke-width: 1; stroke-dasharray: none; stroke-linecap: butt; stroke-dashoffset: 0; stroke-linejoin: miter; stroke-miterlimit: 4; is-custom-font: none; font-file-url: none; fill: rgb(203,75,73); fill-rule: nonzero; opacity: 1;" transform=" translate(-3.5, -5.5)" d="M 0 0 C 0.66 0 1.32 0 2 0 C 2 0.66 2 1.32 2 2 C 2.66 2 3.32 2 4 2 C 4 3.32 4 4.64 4 6 C 4.66 6 5.32 6 6 6 C 6.33 7.32 6.66 8.64 7 10 C 6.01 10.495 6.01 10.495 5 11 C 4.16151196 9.54462432 3.32936066 8.08559627 2.5 6.625 C 1.80390625 5.40683594 1.80390625 5.40683594 1.09375 4.1640625 C 0 2 0 2 0 0 Z" stroke-linecap="round"/>
</g>
		<g transform="matrix(1 0 0 1 -46.4588 40.5)">
<path style="stroke: none; stroke-width: 1; stroke-dasharray: none; stroke-linecap: butt; stroke-dashoffset: 0; stroke-linejoin: miter; stroke-miterlimit: 4; is-custom-font: none; font-file-url: none; fill: rgb(153,144,144); fill-rule: nonzero; opacity: 1;" transform=" translate(2.4588, -5.5)" d="M 0 0 C 1.20272819 2.40545638 1.10071472 3.94996953 1.0625 6.625 C 1.05347656 7.44226563 1.04445312 8.25953125 1.03515625 9.1015625 C 1.02355469 9.72804688 1.01195312 10.35453125 1 11 C 0.67 11 0.34 11 0 11 C 0 8.36 0 5.72 0 3 C -1.98 3 -3.96 3 -6 3 C -3.375 0 -3.375 0 0 0 Z" stroke-linecap="round"/>
</g>
		<g transform="matrix(1 0 0 1 68 -5.6319)">
<path style="stroke: none; stroke-width: 1; stroke-dasharray: none; stroke-linecap: butt; stroke-dashoffset: 0; stroke-linejoin: miter; stroke-miterlimit: 4; is-custom-font: none; font-file-url: none; fill: rgb(237,173,110); fill-rule: nonzero; opacity: 1;" transform=" translate(-7, -1.3681)" d="M 0 0 C 4.62 0 9.24 0 14 0 C 14 0.66 14 1.32 14 2 C 9.04653013 3.59789351 4.86717585 2.28306814 0 1 C 0 0.67 0 0.34 0 0 Z" stroke-linecap="round"/>
</g>
		<g transform="matrix(1 0 0 1 -34.5 138)">
<path style="stroke: none; stroke-width: 1; stroke-dasharray: none; stroke-linecap: butt; stroke-dashoffset: 0; stroke-linejoin: miter; stroke-miterlimit: 4; is-custom-font: none; font-file-url: none; fill: rgb(232,138,94); fill-rule: nonzero; opacity: 1;" transform=" translate(-3.5, -2)" d="M 0 0 C 4.455 0.99 4.455 0.99 9 2 C 9 2.33 9 2.66 9 3 C 5.37 3.33 1.74 3.66 -2 4 C -1.34 2.68 -0.68 1.36 0 0 Z" stroke-linecap="round"/>
</g>
		<g transform="matrix(1 0 0 1 -95 54)">
<path style="stroke: none; stroke-width: 1; stroke-dasharray: none; stroke-linecap: butt; stroke-dashoffset: 0; stroke-linejoin: miter; stroke-miterlimit: 4; is-custom-font: none; font-file-url: none; fill: rgb(216,94,87); fill-rule: nonzero; opacity: 1;" transform=" translate(-3, -5)" d="M 0 0 C 2.74277578 3.19990508 4.6302836 6.00499382 6 10 C 4.68 10 3.36 10 2 10 C 0.68373308 6.38026598 0 3.90432869 0 0 Z" stroke-linecap="round"/>
</g>
		<g transform="matrix(1 0 0 1 76 -83.5)">
<path style="stroke: none; stroke-width: 1; stroke-dasharray: none; stroke-linecap: butt; stroke-dashoffset: 0; stroke-linejoin: miter; stroke-miterlimit: 4; is-custom-font: none; font-file-url: none; fill: rgb(222,89,60); fill-rule: nonzero; opacity: 1;" transform=" translate(-4, -5.5)" d="M 0 0 C 2.75914165 2.38289506 3.66335433 4.65838582 5 8 C 6.52007842 9.77277259 6.52007842 9.77277259 8 11 C 5.6875 10.9375 5.6875 10.9375 3 10 C 1.11957103 6.49851158 0 3.9919694 0 0 Z" stroke-linecap="round"/>
</g>
		<g transform="matrix(1 0 0 1 100.5 103)">
<path style="stroke: none; stroke-width: 1; stroke-dasharray: none; stroke-linecap: butt; stroke-dashoffset: 0; stroke-linejoin: miter; stroke-miterlimit: 4; is-custom-font: none; font-file-url: none; fill: rgb(220,86,77); fill-rule: nonzero; opacity: 1;" transform=" translate(1.5, -4)" d="M 0 0 C 0.99 0.33 1.98 0.66 3 1 C 1.88121617 2.17262904 0.75476949 3.33795138 -0.375 4.5 C -1.00148438 5.1496875 -1.62796875 5.799375 -2.2734375 6.46875 C -4 8 -4 8 -6 8 C -4.768606 4.30581799 -2.79208646 2.64890254 0 0 Z" stroke-linecap="round"/>
</g>
		<g transform="matrix(1 0 0 1 78 71.5)">
<path style="stroke: none; stroke-width: 1; stroke-dasharray: none; stroke-linecap: butt; stroke-dashoffset: 0; stroke-linejoin: miter; stroke-miterlimit: 4; is-custom-font: none; font-file-url: none; fill: rgb(228,88,55); fill-rule: nonzero; opacity: 1;" transform=" translate(3, -5.5)" d="M 0 0 C 0.68359375 1.765625 0.68359375 1.765625 1 4 C -0.21484375 5.921875 -0.21484375 5.921875 -1.9375 7.75 C -2.50339844 8.36359375 -3.06929688 8.9771875 -3.65234375 9.609375 C -4.31943359 10.29773438 -4.31943359 10.29773438 -5 11 C -5.66 10.67 -6.32 10.34 -7 10 C -6.57847656 9.44570313 -6.15695312 8.89140625 -5.72265625 8.3203125 C -5.17480469 7.59585937 -4.62695312 6.87140625 -4.0625 6.125 C -3.51722656 5.40570313 -2.97195313 4.68640625 -2.41015625 3.9453125 C -0.96035376 2.05642921 -0.96035376 2.05642921 0 0 Z" stroke-linecap="round"/>
</g>
		<g transform="matrix(1 0 0 1 -34.5 44)">
<path style="stroke: none; stroke-width: 1; stroke-dasharray: none; stroke-linecap: butt; stroke-dashoffset: 0; stroke-linejoin: miter; stroke-miterlimit: 4; is-custom-font: none; font-file-url: none; fill: rgb(160,96,66); fill-rule: nonzero; opacity: 1;" transform=" translate(-0.5, -7)" d="M 0 0 C 0.33 0 0.66 0 1 0 C 1.33 4.29 1.66 8.58 2 13 C 1.01 13.33 0.02 13.66 -1 14 C -0.67 9.38 -0.34 4.76 0 0 Z" stroke-linecap="round"/>
</g>
		<g transform="matrix(1 0 0 1 -74.5 -90)">
<path style="stroke: none; stroke-width: 1; stroke-dasharray: none; stroke-linecap: butt; stroke-dashoffset: 0; stroke-linejoin: miter; stroke-miterlimit: 4; is-custom-font: none; font-file-url: none; fill: rgb(253,154,101); fill-rule: nonzero; opacity: 1;" transform=" translate(2.5, -6)" d="M 0 0 C 0.33 0.66 0.66 1.32 1 2 C -0.21484375 4.3828125 -0.21484375 4.3828125 -1.9375 7.125 C -2.50339844 8.03507813 -3.06929687 8.94515625 -3.65234375 9.8828125 C -4.09707031 10.58148438 -4.54179687 11.28015625 -5 12 C -5.68359375 10.265625 -5.68359375 10.265625 -6 8 C -4.78515625 5.859375 -4.78515625 5.859375 -3.0625 3.75 C -2.49660156 3.04359375 -1.93070313 2.3371875 -1.34765625 1.609375 C -0.90292969 1.07828125 -0.45820313 0.5471875 0 0 Z" stroke-linecap="round"/>
</g>
		<g transform="matrix(1 0 0 1 -48.5 59)">
<path style="stroke: none; stroke-width: 1; stroke-dasharray: none; stroke-linecap: butt; stroke-dashoffset: 0; stroke-linejoin: miter; stroke-miterlimit: 4; is-custom-font: none; font-file-url: none; fill: rgb(213,210,209); fill-rule: nonzero; opacity: 1;" transform=" translate(0.5, -4)" d="M 0 0 C 0.66 0.33 1.32 0.66 2 1 C 1.25 5.75 1.25 5.75 -1 8 C -1.66 7.67 -2.32 7.34 -3 7 C -1.125 1.125 -1.125 1.125 0 0 Z" stroke-linecap="round"/>
</g>
		<g transform="matrix(1 0 0 1 -95.5 -6)">
<path style="stroke: none; stroke-width: 1; stroke-dasharray: none; stroke-linecap: butt; stroke-dashoffset: 0; stroke-linejoin: miter; stroke-miterlimit: 4; is-custom-font: none; font-file-url: none; fill: rgb(228,81,68); fill-rule: nonzero; opacity: 1;" transform=" translate(-0.5, -3)" d="M 0 0 C 0.99 0.33 1.98 0.66 3 1 C 2.67 2.65 2.34 4.3 2 6 C 1.01 5.67 0.02 5.34 -1 5 C -1.6875 2.9375 -1.6875 2.9375 -2 1 C -1.34 0.67 -0.68 0.34 0 0 Z" stroke-linecap="round"/>
</g>
		<g transform="matrix(1 0 0 1 -66 -102)">
<path style="stroke: none; stroke-width: 1; stroke-dasharray: none; stroke-linecap: butt; stroke-dashoffset: 0; stroke-linejoin: miter; stroke-miterlimit: 4; is-custom-font: none; font-file-url: none; fill: rgb(233,81,58); fill-rule: nonzero; opacity: 1;" transform=" translate(2, -4)" d="M 0 0 C 0.66 0.33 1.32 0.66 2 1 C -0.31 3.31 -2.62 5.62 -5 8 C -5.33 6.68 -5.66 5.36 -6 4 C -4.02610343 2.02610343 -2.56269497 1.04109483 0 0 Z" stroke-linecap="round"/>
</g>
		<g transform="matrix(1 0 0 1 -65.5 -101)">
<path style="stroke: none; stroke-width: 1; stroke-dasharray: none; stroke-linecap: butt; stroke-dashoffset: 0; stroke-linejoin: miter; stroke-miterlimit: 4; is-custom-font: none; font-file-url: none; fill: rgb(252,147,99); fill-rule: nonzero; opacity: 1;" transform=" translate(2.5, -4)" d="M 0 0 C 0.66 0.33 1.32 0.66 2 1 C -0.84936103 4.00765886 -3.23511958 6.27845212 -7 8 C -6.02133662 6.85373678 -5.04205413 5.70800212 -4.0625 4.5625 C -3.51722656 3.92441406 -2.97195312 3.28632813 -2.41015625 2.62890625 C -1.63204305 1.73008851 -0.84063472 0.84063472 0 0 Z" stroke-linecap="round"/>
</g>
		<g transform="matrix(1 0 0 1 85.5 115.5782)">
<path style="stroke: none; stroke-width: 1; stroke-dasharray: none; stroke-linecap: butt; stroke-dashoffset: 0; stroke-linejoin: miter; stroke-miterlimit: 4; is-custom-font: none; font-file-url: none; fill: rgb(224,85,75); fill-rule: nonzero; opacity: 1;" transform=" translate(3.5, -1.5781)" d="M 0 0 C -4.75 4 -4.75 4 -7 4 C -6.67 2.68 -6.34 1.36 -6 0 C -2.25 -1.125 -2.25 -1.125 0 0 Z" stroke-linecap="round"/>
</g>
		<g transform="matrix(1 0 0 1 -61.5 45.5)">
<path style="stroke: none; stroke-width: 1; stroke-dasharray: none; stroke-linecap: butt; stroke-dashoffset: 0; stroke-linejoin: miter; stroke-miterlimit: 4; is-custom-font: none; font-file-url: none; fill: rgb(213,191,192); fill-rule: nonzero; opacity: 1;" transform=" translate(3.5, -2.5)" d="M 0 0 C -0.66 1.65 -1.32 3.3 -2 5 C -3.65 4.67 -5.3 4.34 -7 4 C -2.25 0 -2.25 0 0 0 Z" stroke-linecap="round"/>
</g>
		<g transform="matrix(1 0 0 1 -132.1478 -58.5)">
<path style="stroke: none; stroke-width: 1; stroke-dasharray: none; stroke-linecap: butt; stroke-dashoffset: 0; stroke-linejoin: miter; stroke-miterlimit: 4; is-custom-font: none; font-file-url: none; fill: rgb(198,80,73); fill-rule: nonzero; opacity: 1;" transform=" translate(1.1478, -4.5)" d="M 0 0 C 0.95904856 3.83619425 0.91892116 5.32431536 0 9 C -0.99 9 -1.98 9 -3 9 C -2.01 6.03 -1.02 3.06 0 0 Z" stroke-linecap="round"/>
</g>
		<g transform="matrix(1 0 0 1 25 -72.3531)">
<path style="stroke: none; stroke-width: 1; stroke-dasharray: none; stroke-linecap: butt; stroke-dashoffset: 0; stroke-linejoin: miter; stroke-miterlimit: 4; is-custom-font: none; font-file-url: none; fill: rgb(252,237,221); fill-rule: nonzero; opacity: 1;" transform=" translate(6, -0.6469)" d="M 0 0 C -3.20380017 2.13586678 -4.01939967 2.23132175 -7.6875 2.125 C -8.89986328 2.09792969 -8.89986328 2.09792969 -10.13671875 2.0703125 C -11.05904297 2.03550781 -11.05904297 2.03550781 -12 2 C -12 1.67 -12 1.34 -12 1 C -3.96428571 -1.27678571 -3.96428571 -1.27678571 0 0 Z" stroke-linecap="round"/>
</g>
		<g transform="matrix(1 0 0 1 116.6287 85.5)">
<path style="stroke: none; stroke-width: 1; stroke-dasharray: none; stroke-linecap: butt; stroke-dashoffset: 0; stroke-linejoin: miter; stroke-miterlimit: 4; is-custom-font: none; font-file-url: none; fill: rgb(208,76,69); fill-rule: nonzero; opacity: 1;" transform=" translate(-1.6287, -3.5)" d="M 0 0 C 1.98 0.495 1.98 0.495 4 1 C 2.02 3.97 2.02 3.97 0 7 C -0.93423645 3.98968256 -1.04449911 3.13349732 0 0 Z" stroke-linecap="round"/>
</g>
		<g transform="matrix(1 0 0 1 -15 23.9375)">
<path style="stroke: none; stroke-width: 1; stroke-dasharray: none; stroke-linecap: butt; stroke-dashoffset: 0; stroke-linejoin: miter; stroke-miterlimit: 4; is-custom-font: none; font-file-url: none; fill: rgb(227,137,90); fill-rule: nonzero; opacity: 1;" transform=" translate(1.125, -2.0625)" d="M 0 0 C 0.94875 0.04125 1.8975 0.0825 2.875 0.125 C 2.215 1.445 1.555 2.765 0.875 4.125 C 0.545 3.465 0.215 2.805 -0.125 2.125 C -1.775 2.125 -3.425 2.125 -5.125 2.125 C -3.125 0.125 -3.125 0.125 0 0 Z" stroke-linecap="round"/>
</g>
		<g transform="matrix(1 0 0 1 -77.5 -20)">
<path style="stroke: none; stroke-width: 1; stroke-dasharray: none; stroke-linecap: butt; stroke-dashoffset: 0; stroke-linejoin: miter; stroke-miterlimit: 4; is-custom-font: none; font-file-url: none; fill: rgb(233,156,116); fill-rule: nonzero; opacity: 1;" transform=" translate(-1.5, -3)" d="M 0 0 C 1.65 0 3.3 0 5 0 C 0.25 4.875 0.25 4.875 -2 6 C -2 5.01 -2 4.02 -2 3 C -1.34 3 -0.68 3 0 3 C 0 2.01 0 1.02 0 0 Z" stroke-linecap="round"/>
</g>
		<g transform="matrix(1 0 0 1 -51.5 -38)">
<path style="stroke: none; stroke-width: 1; stroke-dasharray: none; stroke-linecap: butt; stroke-dashoffset: 0; stroke-linejoin: miter; stroke-miterlimit: 4; is-custom-font: none; font-file-url: none; fill: rgb(254,241,225); fill-rule: nonzero; opacity: 1;" transform=" translate(4.5, -3)" d="M 0 0 C -0.33 0.99 -0.66 1.98 -1 3 C -3.0625 3.6875 -3.0625 3.6875 -5 4 C -5 4.66 -5 5.32 -5 6 C -6.32 5.67 -7.64 5.34 -9 5 C -7.87926138 4.16094435 -6.75325453 3.32892169 -5.625 2.5 C -4.99851563 2.0359375 -4.37203125 1.571875 -3.7265625 1.09375 C -2 0 -2 0 0 0 Z" stroke-linecap="round"/>
</g>
		<g transform="matrix(1 0 0 1 -250 -250)">
<path style="stroke: none; stroke-width: 1; stroke-dasharray: none; stroke-linecap: butt; stroke-dashoffset: 0; stroke-linejoin: miter; stroke-miterlimit: 4; is-custom-font: none; font-file-url: none; fill: rgb(0,0,0); fill-rule: nonzero; opacity: 1;" transform=" translate(0, 0)" d="" stroke-linecap="round"/>
</g>
		<g transform="matrix(1 0 0 1 -250 -250)">
<path style="stroke: none; stroke-width: 1; stroke-dasharray: none; stroke-linecap: butt; stroke-dashoffset: 0; stroke-linejoin: miter; stroke-miterlimit: 4; is-custom-font: none; font-file-url: none; fill: rgb(0,0,0); fill-rule: nonzero; opacity: 1;" transform=" translate(0, 0)" d="" stroke-linecap="round"/>
</g>
		<g transform="matrix(1 0 0 1 -250 -250)">
<path style="stroke: none; stroke-width: 1; stroke-dasharray: none; stroke-linecap: butt; stroke-dashoffset: 0; stroke-linejoin: miter; stroke-miterlimit: 4; is-custom-font: none; font-file-url: none; fill: rgb(0,0,0); fill-rule: nonzero; opacity: 1;" transform=" translate(0, 0)" d="" stroke-linecap="round"/>
</g>
		<g transform="matrix(1 0 0 1 -250 -250)">
<path style="stroke: none; stroke-width: 1; stroke-dasharray: none; stroke-linecap: butt; stroke-dashoffset: 0; stroke-linejoin: miter; stroke-miterlimit: 4; is-custom-font: none; font-file-url: none; fill: rgb(0,0,0); fill-rule: nonzero; opacity: 1;" transform=" translate(0, 0)" d="" stroke-linecap="round"/>
</g>
		<g transform="matrix(1 0 0 1 -250 -250)">
<path style="stroke: none; stroke-width: 1; stroke-dasharray: none; stroke-linecap: butt; stroke-dashoffset: 0; stroke-linejoin: miter; stroke-miterlimit: 4; is-custom-font: none; font-file-url: none; fill: rgb(0,0,0); fill-rule: nonzero; opacity: 1;" transform=" translate(0, 0)" d="" stroke-linecap="round"/>
</g>
		<g transform="matrix(1 0 0 1 -250 -250)">
<path style="stroke: none; stroke-width: 1; stroke-dasharray: none; stroke-linecap: butt; stroke-dashoffset: 0; stroke-linejoin: miter; stroke-miterlimit: 4; is-custom-font: none; font-file-url: none; fill: rgb(0,0,0); fill-rule: nonzero; opacity: 1;" transform=" translate(0, 0)" d="" stroke-linecap="round"/>
</g>
		<g transform="matrix(1 0 0 1 -250 -250)">
<path style="stroke: none; stroke-width: 1; stroke-dasharray: none; stroke-linecap: butt; stroke-dashoffset: 0; stroke-linejoin: miter; stroke-miterlimit: 4; is-custom-font: none; font-file-url: none; fill: rgb(0,0,0); fill-rule: nonzero; opacity: 1;" transform=" translate(0, 0)" d="" stroke-linecap="round"/>
</g>
		<g transform="matrix(1 0 0 1 -250 -250)">
<path style="stroke: none; stroke-width: 1; stroke-dasharray: none; stroke-linecap: butt; stroke-dashoffset: 0; stroke-linejoin: miter; stroke-miterlimit: 4; is-custom-font: none; font-file-url: none; fill: rgb(0,0,0); fill-rule: nonzero; opacity: 1;" transform=" translate(0, 0)" d="" stroke-linecap="round"/>
</g>
		<g transform="matrix(1 0 0 1 -250 -250)">
<path style="stroke: none; stroke-width: 1; stroke-dasharray: none; stroke-linecap: butt; stroke-dashoffset: 0; stroke-linejoin: miter; stroke-miterlimit: 4; is-custom-font: none; font-file-url: none; fill: rgb(0,0,0); fill-rule: nonzero; opacity: 1;" transform=" translate(0, 0)" d="" stroke-linecap="round"/>
</g>
		<g transform="matrix(1 0 0 1 -250 -250)">
<path style="stroke: none; stroke-width: 1; stroke-dasharray: none; stroke-linecap: butt; stroke-dashoffset: 0; stroke-linejoin: miter; stroke-miterlimit: 4; is-custom-font: none; font-file-url: none; fill: rgb(0,0,0); fill-rule: nonzero; opacity: 1;" transform=" translate(0, 0)" d="" stroke-linecap="round"/>
</g>
		<g transform="matrix(1 0 0 1 -250 -250)">
<path style="stroke: none; stroke-width: 1; stroke-dasharray: none; stroke-linecap: butt; stroke-dashoffset: 0; stroke-linejoin: miter; stroke-miterlimit: 4; is-custom-font: none; font-file-url: none; fill: rgb(0,0,0); fill-rule: nonzero; opacity: 1;" transform=" translate(0, 0)" d="" stroke-linecap="round"/>
</g>
		<g transform="matrix(1 0 0 1 -250 -250)">
<path style="stroke: none; stroke-width: 1; stroke-dasharray: none; stroke-linecap: butt; stroke-dashoffset: 0; stroke-linejoin: miter; stroke-miterlimit: 4; is-custom-font: none; font-file-url: none; fill: rgb(0,0,0); fill-rule: nonzero; opacity: 1;" transform=" translate(0, 0)" d="" stroke-linecap="round"/>
</g>
		<g transform="matrix(1 0 0 1 -250 -250)">
<path style="stroke: none; stroke-width: 1; stroke-dasharray: none; stroke-linecap: butt; stroke-dashoffset: 0; stroke-linejoin: miter; stroke-miterlimit: 4; is-custom-font: none; font-file-url: none; fill: rgb(0,0,0); fill-rule: nonzero; opacity: 1;" transform=" translate(0, 0)" d="" stroke-linecap="round"/>
</g>
		<g transform="matrix(1 0 0 1 -250 -250)">
<path style="stroke: none; stroke-width: 1; stroke-dasharray: none; stroke-linecap: butt; stroke-dashoffset: 0; stroke-linejoin: miter; stroke-miterlimit: 4; is-custom-font: none; font-file-url: none; fill: rgb(0,0,0); fill-rule: nonzero; opacity: 1;" transform=" translate(0, 0)" d="" stroke-linecap="round"/>
</g>
		<g transform="matrix(1 0 0 1 -250 -250)">
<path style="stroke: none; stroke-width: 1; stroke-dasharray: none; stroke-linecap: butt; stroke-dashoffset: 0; stroke-linejoin: miter; stroke-miterlimit: 4; is-custom-font: none; font-file-url: none; fill: rgb(0,0,0); fill-rule: nonzero; opacity: 1;" transform=" translate(0, 0)" d="" stroke-linecap="round"/>
</g>
		<g transform="matrix(1 0 0 1 -250 -250)">
<path style="stroke: none; stroke-width: 1; stroke-dasharray: none; stroke-linecap: butt; stroke-dashoffset: 0; stroke-linejoin: miter; stroke-miterlimit: 4; is-custom-font: none; font-file-url: none; fill: rgb(0,0,0); fill-rule: nonzero; opacity: 1;" transform=" translate(0, 0)" d="" stroke-linecap="round"/>
</g>
		<g transform="matrix(1 0 0 1 -250 -250)">
<path style="stroke: none; stroke-width: 1; stroke-dasharray: none; stroke-linecap: butt; stroke-dashoffset: 0; stroke-linejoin: miter; stroke-miterlimit: 4; is-custom-font: none; font-file-url: none; fill: rgb(0,0,0); fill-rule: nonzero; opacity: 1;" transform=" translate(0, 0)" d="" stroke-linecap="round"/>
</g>
		<g transform="matrix(1 0 0 1 -250 -250)">
<path style="stroke: none; stroke-width: 1; stroke-dasharray: none; stroke-linecap: butt; stroke-dashoffset: 0; stroke-linejoin: miter; stroke-miterlimit: 4; is-custom-font: none; font-file-url: none; fill: rgb(0,0,0); fill-rule: nonzero; opacity: 1;" transform=" translate(0, 0)" d="" stroke-linecap="round"/>
</g>
		<g transform="matrix(1 0 0 1 -250 -250)">
<path style="stroke: none; stroke-width: 1; stroke-dasharray: none; stroke-linecap: butt; stroke-dashoffset: 0; stroke-linejoin: miter; stroke-miterlimit: 4; is-custom-font: none; font-file-url: none; fill: rgb(0,0,0); fill-rule: nonzero; opacity: 1;" transform=" translate(0, 0)" d="" stroke-linecap="round"/>
</g>
		<g transform="matrix(1 0 0 1 -250 -250)">
<path style="stroke: none; stroke-width: 1; stroke-dasharray: none; stroke-linecap: butt; stroke-dashoffset: 0; stroke-linejoin: miter; stroke-miterlimit: 4; is-custom-font: none; font-file-url: none; fill: rgb(0,0,0); fill-rule: nonzero; opacity: 1;" transform=" translate(0, 0)" d="" stroke-linecap="round"/>
</g>
		<g transform="matrix(1 0 0 1 -250 -250)">
<path style="stroke: none; stroke-width: 1; stroke-dasharray: none; stroke-linecap: butt; stroke-dashoffset: 0; stroke-linejoin: miter; stroke-miterlimit: 4; is-custom-font: none; font-file-url: none; fill: rgb(0,0,0); fill-rule: nonzero; opacity: 1;" transform=" translate(0, 0)" d="" stroke-linecap="round"/>
</g>
		<g transform="matrix(1 0 0 1 -250 -250)">
<path style="stroke: none; stroke-width: 1; stroke-dasharray: none; stroke-linecap: butt; stroke-dashoffset: 0; stroke-linejoin: miter; stroke-miterlimit: 4; is-custom-font: none; font-file-url: none; fill: rgb(0,0,0); fill-rule: nonzero; opacity: 1;" transform=" translate(0, 0)" d="" stroke-linecap="round"/>
</g>
		<g transform="matrix(1 0 0 1 -250 -250)">
<path style="stroke: none; stroke-width: 1; stroke-dasharray: none; stroke-linecap: butt; stroke-dashoffset: 0; stroke-linejoin: miter; stroke-miterlimit: 4; is-custom-font: none; font-file-url: none; fill: rgb(0,0,0); fill-rule: nonzero; opacity: 1;" transform=" translate(0, 0)" d="" stroke-linecap="round"/>
</g>
		<g transform="matrix(1 0 0 1 -250 -250)">
<path style="stroke: none; stroke-width: 1; stroke-dasharray: none; stroke-linecap: butt; stroke-dashoffset: 0; stroke-linejoin: miter; stroke-miterlimit: 4; is-custom-font: none; font-file-url: none; fill: rgb(0,0,0); fill-rule: nonzero; opacity: 1;" transform=" translate(0, 0)" d="" stroke-linecap="round"/>
</g>
		<g transform="matrix(1 0 0 1 -250 -250)">
<path style="stroke: none; stroke-width: 1; stroke-dasharray: none; stroke-linecap: butt; stroke-dashoffset: 0; stroke-linejoin: miter; stroke-miterlimit: 4; is-custom-font: none; font-file-url: none; fill: rgb(0,0,0); fill-rule: nonzero; opacity: 1;" transform=" translate(0, 0)" d="" stroke-linecap="round"/>
</g>
		<g transform="matrix(1 0 0 1 -250 -250)">
<path style="stroke: none; stroke-width: 1; stroke-dasharray: none; stroke-linecap: butt; stroke-dashoffset: 0; stroke-linejoin: miter; stroke-miterlimit: 4; is-custom-font: none; font-file-url: none; fill: rgb(0,0,0); fill-rule: nonzero; opacity: 1;" transform=" translate(0, 0)" d="" stroke-linecap="round"/>
</g>
		<g transform="matrix(1 0 0 1 -250 -250)">
<path style="stroke: none; stroke-width: 1; stroke-dasharray: none; stroke-linecap: butt; stroke-dashoffset: 0; stroke-linejoin: miter; stroke-miterlimit: 4; is-custom-font: none; font-file-url: none; fill: rgb(0,0,0); fill-rule: nonzero; opacity: 1;" transform=" translate(0, 0)" d="" stroke-linecap="round"/>
</g>
		<g transform="matrix(1 0 0 1 -250 -250)">
<path style="stroke: none; stroke-width: 1; stroke-dasharray: none; stroke-linecap: butt; stroke-dashoffset: 0; stroke-linejoin: miter; stroke-miterlimit: 4; is-custom-font: none; font-file-url: none; fill: rgb(0,0,0); fill-rule: nonzero; opacity: 1;" transform=" translate(0, 0)" d="" stroke-linecap="round"/>
</g>
		<g transform="matrix(1 0 0 1 -250 -250)">
<path style="stroke: none; stroke-width: 1; stroke-dasharray: none; stroke-linecap: butt; stroke-dashoffset: 0; stroke-linejoin: miter; stroke-miterlimit: 4; is-custom-font: none; font-file-url: none; fill: rgb(0,0,0); fill-rule: nonzero; opacity: 1;" transform=" translate(0, 0)" d="" stroke-linecap="round"/>
</g>
		<g transform="matrix(1 0 0 1 -250 -250)">
<path style="stroke: none; stroke-width: 1; stroke-dasharray: none; stroke-linecap: butt; stroke-dashoffset: 0; stroke-linejoin: miter; stroke-miterlimit: 4; is-custom-font: none; font-file-url: none; fill: rgb(0,0,0); fill-rule: nonzero; opacity: 1;" transform=" translate(0, 0)" d="" stroke-linecap="round"/>
</g>
		<g transform="matrix(1 0 0 1 -250 -250)">
<path style="stroke: none; stroke-width: 1; stroke-dasharray: none; stroke-linecap: butt; stroke-dashoffset: 0; stroke-linejoin: miter; stroke-miterlimit: 4; is-custom-font: none; font-file-url: none; fill: rgb(0,0,0); fill-rule: nonzero; opacity: 1;" transform=" translate(0, 0)" d="" stroke-linecap="round"/>
</g>
		<g transform="matrix(1 0 0 1 -250 -250)">
<path style="stroke: none; stroke-width: 1; stroke-dasharray: none; stroke-linecap: butt; stroke-dashoffset: 0; stroke-linejoin: miter; stroke-miterlimit: 4; is-custom-font: none; font-file-url: none; fill: rgb(0,0,0); fill-rule: nonzero; opacity: 1;" transform=" translate(0, 0)" d="" stroke-linecap="round"/>
</g>
		<g transform="matrix(1 0 0 1 -250 -250)">
<path style="stroke: none; stroke-width: 1; stroke-dasharray: none; stroke-linecap: butt; stroke-dashoffset: 0; stroke-linejoin: miter; stroke-miterlimit: 4; is-custom-font: none; font-file-url: none; fill: rgb(0,0,0); fill-rule: nonzero; opacity: 1;" transform=" translate(0, 0)" d="" stroke-linecap="round"/>
</g>
		<g transform="matrix(1 0 0 1 -250 -250)">
<path style="stroke: none; stroke-width: 1; stroke-dasharray: none; stroke-linecap: butt; stroke-dashoffset: 0; stroke-linejoin: miter; stroke-miterlimit: 4; is-custom-font: none; font-file-url: none; fill: rgb(0,0,0); fill-rule: nonzero; opacity: 1;" transform=" translate(0, 0)" d="" stroke-linecap="round"/>
</g>
		<g transform="matrix(1 0 0 1 -250 -250)">
<path style="stroke: none; stroke-width: 1; stroke-dasharray: none; stroke-linecap: butt; stroke-dashoffset: 0; stroke-linejoin: miter; stroke-miterlimit: 4; is-custom-font: none; font-file-url: none; fill: rgb(0,0,0); fill-rule: nonzero; opacity: 1;" transform=" translate(0, 0)" d="" stroke-linecap="round"/>
</g>
		<g transform="matrix(1 0 0 1 -250 -250)">
<path style="stroke: none; stroke-width: 1; stroke-dasharray: none; stroke-linecap: butt; stroke-dashoffset: 0; stroke-linejoin: miter; stroke-miterlimit: 4; is-custom-font: none; font-file-url: none; fill: rgb(0,0,0); fill-rule: nonzero; opacity: 1;" transform=" translate(0, 0)" d="" stroke-linecap="round"/>
</g>
		<g transform="matrix(1 0 0 1 -250 -250)">
<path style="stroke: none; stroke-width: 1; stroke-dasharray: none; stroke-linecap: butt; stroke-dashoffset: 0; stroke-linejoin: miter; stroke-miterlimit: 4; is-custom-font: none; font-file-url: none; fill: rgb(0,0,0); fill-rule: nonzero; opacity: 1;" transform=" translate(0, 0)" d="" stroke-linecap="round"/>
</g>
		<g transform="matrix(1 0 0 1 -250 -250)">
<path style="stroke: none; stroke-width: 1; stroke-dasharray: none; stroke-linecap: butt; stroke-dashoffset: 0; stroke-linejoin: miter; stroke-miterlimit: 4; is-custom-font: none; font-file-url: none; fill: rgb(0,0,0); fill-rule: nonzero; opacity: 1;" transform=" translate(0, 0)" d="" stroke-linecap="round"/>
</g>
		<g transform="matrix(1 0 0 1 -250 -250)">
<path style="stroke: none; stroke-width: 1; stroke-dasharray: none; stroke-linecap: butt; stroke-dashoffset: 0; stroke-linejoin: miter; stroke-miterlimit: 4; is-custom-font: none; font-file-url: none; fill: rgb(0,0,0); fill-rule: nonzero; opacity: 1;" transform=" translate(0, 0)" d="" stroke-linecap="round"/>
</g>
		<g transform="matrix(1 0 0 1 -250 -250)">
<path style="stroke: none; stroke-width: 1; stroke-dasharray: none; stroke-linecap: butt; stroke-dashoffset: 0; stroke-linejoin: miter; stroke-miterlimit: 4; is-custom-font: none; font-file-url: none; fill: rgb(0,0,0); fill-rule: nonzero; opacity: 1;" transform=" translate(0, 0)" d="" stroke-linecap="round"/>
</g>
		<g transform="matrix(1 0 0 1 -250 -250)">
<path style="stroke: none; stroke-width: 1; stroke-dasharray: none; stroke-linecap: butt; stroke-dashoffset: 0; stroke-linejoin: miter; stroke-miterlimit: 4; is-custom-font: none; font-file-url: none; fill: rgb(0,0,0); fill-rule: nonzero; opacity: 1;" transform=" translate(0, 0)" d="" stroke-linecap="round"/>
</g>
		<g transform="matrix(1 0 0 1 -250 -250)">
<path style="stroke: none; stroke-width: 1; stroke-dasharray: none; stroke-linecap: butt; stroke-dashoffset: 0; stroke-linejoin: miter; stroke-miterlimit: 4; is-custom-font: none; font-file-url: none; fill: rgb(0,0,0); fill-rule: nonzero; opacity: 1;" transform=" translate(0, 0)" d="" stroke-linecap="round"/>
</g>
		<g transform="matrix(1 0 0 1 -250 -250)">
<path style="stroke: none; stroke-width: 1; stroke-dasharray: none; stroke-linecap: butt; stroke-dashoffset: 0; stroke-linejoin: miter; stroke-miterlimit: 4; is-custom-font: none; font-file-url: none; fill: rgb(0,0,0); fill-rule: nonzero; opacity: 1;" transform=" translate(0, 0)" d="" stroke-linecap="round"/>
</g>
		<g transform="matrix(1 0 0 1 -250 -250)">
<path style="stroke: none; stroke-width: 1; stroke-dasharray: none; stroke-linecap: butt; stroke-dashoffset: 0; stroke-linejoin: miter; stroke-miterlimit: 4; is-custom-font: none; font-file-url: none; fill: rgb(0,0,0); fill-rule: nonzero; opacity: 1;" transform=" translate(0, 0)" d="" stroke-linecap="round"/>
</g>
		<g transform="matrix(1 0 0 1 -250 -250)">
<path style="stroke: none; stroke-width: 1; stroke-dasharray: none; stroke-linecap: butt; stroke-dashoffset: 0; stroke-linejoin: miter; stroke-miterlimit: 4; is-custom-font: none; font-file-url: none; fill: rgb(0,0,0); fill-rule: nonzero; opacity: 1;" transform=" translate(0, 0)" d="" stroke-linecap="round"/>
</g>
		<g transform="matrix(1 0 0 1 -250 -250)">
<path style="stroke: none; stroke-width: 1; stroke-dasharray: none; stroke-linecap: butt; stroke-dashoffset: 0; stroke-linejoin: miter; stroke-miterlimit: 4; is-custom-font: none; font-file-url: none; fill: rgb(0,0,0); fill-rule: nonzero; opacity: 1;" transform=" translate(0, 0)" d="" stroke-linecap="round"/>
</g>
		<g transform="matrix(1 0 0 1 -250 -250)">
<path style="stroke: none; stroke-width: 1; stroke-dasharray: none; stroke-linecap: butt; stroke-dashoffset: 0; stroke-linejoin: miter; stroke-miterlimit: 4; is-custom-font: none; font-file-url: none; fill: rgb(0,0,0); fill-rule: nonzero; opacity: 1;" transform=" translate(0, 0)" d="" stroke-linecap="round"/>
</g>
		<g transform="matrix(1 0 0 1 -250 -250)">
<path style="stroke: none; stroke-width: 1; stroke-dasharray: none; stroke-linecap: butt; stroke-dashoffset: 0; stroke-linejoin: miter; stroke-miterlimit: 4; is-custom-font: none; font-file-url: none; fill: rgb(0,0,0); fill-rule: nonzero; opacity: 1;" transform=" translate(0, 0)" d="" stroke-linecap="round"/>
</g>
		<g transform="matrix(1 0 0 1 -250 -250)">
<path style="stroke: none; stroke-width: 1; stroke-dasharray: none; stroke-linecap: butt; stroke-dashoffset: 0; stroke-linejoin: miter; stroke-miterlimit: 4; is-custom-font: none; font-file-url: none; fill: rgb(0,0,0); fill-rule: nonzero; opacity: 1;" transform=" translate(0, 0)" d="" stroke-linecap="round"/>
</g>
		<g transform="matrix(1 0 0 1 -250 -250)">
<path style="stroke: none; stroke-width: 1; stroke-dasharray: none; stroke-linecap: butt; stroke-dashoffset: 0; stroke-linejoin: miter; stroke-miterlimit: 4; is-custom-font: none; font-file-url: none; fill: rgb(0,0,0); fill-rule: nonzero; opacity: 1;" transform=" translate(0, 0)" d="" stroke-linecap="round"/>
</g>
		<g transform="matrix(1 0 0 1 -250 -250)">
<path style="stroke: none; stroke-width: 1; stroke-dasharray: none; stroke-linecap: butt; stroke-dashoffset: 0; stroke-linejoin: miter; stroke-miterlimit: 4; is-custom-font: none; font-file-url: none; fill: rgb(0,0,0); fill-rule: nonzero; opacity: 1;" transform=" translate(0, 0)" d="" stroke-linecap="round"/>
</g>
		<g transform="matrix(1 0 0 1 -250 -250)">
<path style="stroke: none; stroke-width: 1; stroke-dasharray: none; stroke-linecap: butt; stroke-dashoffset: 0; stroke-linejoin: miter; stroke-miterlimit: 4; is-custom-font: none; font-file-url: none; fill: rgb(0,0,0); fill-rule: nonzero; opacity: 1;" transform=" translate(0, 0)" d="" stroke-linecap="round"/>
</g>
</g>
</g>
</svg>